# https://github.com/mikedh/trimesh
mtllib material.mtl
usemtl material_0
v 0.10151900 0.01391400 0.16572500
v 0.13352800 0.02078900 -0.13941300
v 0.00736200 -0.00124400 -0.00633600
v 0.02052800 0.00014700 0.04330100
v 0.04879900 0.00608000 -0.11708200
v 0.06347000 0.00741200 -0.00155500
v 0.05736200 0.00670100 -0.00144000
v 0.05791300 0.00671300 -0.02672800
v 0.18173600 0.04535100 -0.13479900
v 0.11001900 0.01625600 -0.05015200
v 0.09355400 0.01271200 -0.05178400
v 0.18866500 0.02899300 0.08218200
v 0.10982200 0.01694900 -0.13890200
v 0.14299400 0.02092800 0.18391500
v 0.04681200 0.00494400 -0.08400600
v 0.09591400 0.03034000 -0.13758500
v 0.11076400 0.01661400 -0.02480700
v 0.05351200 0.00555900 -0.01193400
v 0.14795000 0.03914000 0.09822700
v 0.11094600 0.02782100 0.03503300
v 0.18658700 0.02947900 -0.05824200
v 0.12185700 0.03506500 -0.13512200
v 0.15993900 0.02398600 0.10636500
v -0.00770000 0.01257200 -0.01477800
v 0.07403000 0.00923800 0.00906000
v -0.00560500 -0.00147900 0.05683200
v 0.09596600 0.01351500 -0.09165400
v 0.04550400 0.00462200 0.02408700
v 0.04616400 0.02181100 0.06055800
v 0.01829700 0.00003800 -0.05332200
v 0.14751900 0.03344400 0.10563100
v -0.00634500 0.00225900 0.06695300
v 0.10126500 0.01433600 -0.00244400
v 0.01728100 0.00013800 0.09473600
v 0.03235300 0.00276100 -0.09951900
v 0.18517700 0.03018700 -0.13157200
v 0.00200200 0.00119100 0.13879900
v 0.01588600 0.00028100 0.01768700
v 0.05207900 0.00655700 -0.13764900
v 0.06868300 0.01243400 0.18538800
v 0.07317700 0.00928900 -0.08319600
v 0.00670300 -0.00166400 0.18565400
v 0.08191500 0.01066000 -0.02496000
v 0.03021600 0.00187400 -0.02384800
v 0.07981900 0.01037300 -0.06920700
v -0.00644500 0.00211200 -0.02100500
v 0.03216700 0.00255300 -0.04985300
v 0.10985000 0.03222800 -0.13801600
v 0.01238000 0.00002500 -0.13679800
v 0.05210700 0.00572200 -0.04987700
v 0.04521200 0.00456900 0.06443800
v -0.00536100 0.00325000 0.12993500
v 0.01211600 -0.00001200 -0.06831400
v 0.12521300 0.01820400 0.10704900
v 0.18683300 0.02932200 -0.02965000
v 0.17966900 0.02762000 0.02171300
v 0.11967200 0.01692200 0.18374800
v 0.17585700 0.02727200 0.05250600
v -0.00178700 0.00068400 -0.08647300
v -0.00519900 0.00018300 0.08079600
v 0.07004600 0.00994100 -0.11779400
v 0.03227500 0.01970600 -0.13664300
v 0.10670900 0.03226700 0.16632100
v 0.11388300 0.01629700 0.10472700
v -0.00715300 0.01276200 0.01751900
v 0.18536400 0.04520900 0.04469100
v 0.10981700 0.02777800 -0.02107000
v 0.17387600 0.03777600 0.07636500
v -0.00517600 0.00293100 0.14582800
v 0.06368100 0.00725200 -0.04940600
v 0.00577900 0.01528700 0.18637000
v 0.06135000 0.00688000 0.12641400
v 0.01759000 0.00058500 -0.11464400
v -0.00477900 0.00957900 0.15583200
v 0.10917600 0.02755900 -0.05638300
v -0.00468600 0.00097900 0.09628500
v 0.10316300 0.01422300 0.14259800
v 0.16138700 0.03996900 0.18374600
v 0.18588700 0.03081600 -0.08680300
v 0.17148700 0.02707000 -0.06068300
v -0.00736800 -0.00280100 -0.11019300
v 0.05621100 0.02364400 0.11263900
v 0.14774800 0.03923100 0.18217400
v 0.16043600 0.02555400 -0.14026400
v 0.18431000 0.02926200 -0.11557500
v 0.15164200 0.03449900 0.07238800
v 0.17243100 0.03776400 0.10496200
v 0.08137500 0.01062700 0.18454300
v 0.00833600 0.00225700 -0.04633900
v -0.00802900 0.01269400 -0.04538900
v 0.18346300 0.04551300 -0.07657800
v 0.16012600 0.03636100 -0.06013200
v -0.00366800 0.01340800 -0.13557700
v 0.18680900 0.04582200 0.14298600
v 0.10041200 0.01377400 0.09681000
v -0.00643400 0.01286700 0.05352500
v -0.00395100 -0.00210100 0.08971100
v 0.07857900 0.01091600 -0.12391000
v 0.02849600 0.00205100 -0.06514600
v 0.01513800 -0.00011300 0.14014900
v 0.01236200 0.00275400 0.11202500
v 0.03059500 0.00177200 0.00955900
v -0.00190300 -0.00275300 0.12940100
v 0.07514700 0.00935300 -0.03948300
v -0.00591100 -0.00259700 -0.05961600
v 0.02496400 0.00011200 -0.03622600
v 0.18610500 0.04556100 0.08410000
v 0.17632800 0.02713900 0.08339900
v -0.00589700 0.00211800 0.01343500
v 0.18617200 0.04569100 0.17740400
v 0.10699400 0.03167800 0.18446900
v 0.06280600 0.00719300 0.09212100
v 0.04517500 0.00444300 0.00908300
v 0.17393300 0.02749100 -0.03296100
v 0.00121700 0.00120400 0.09845000
v 0.00769000 0.00197800 -0.06638100
v 0.05836000 0.00649300 0.08045000
v 0.11545400 0.01729400 -0.06029000
v 0.00058500 0.00004100 0.11791300
v 0.18227600 0.02823300 0.04467000
v 0.09899800 0.01452200 -0.11038000
v 0.07583700 0.00964000 0.04587700
v 0.18021000 0.02762000 0.00163300
v 0.00556400 -0.00196800 0.14129800
v -0.00487300 0.00348800 0.11901600
v 0.17565500 0.02713500 0.10519500
v 0.17269200 0.03739900 0.01440500
v -0.00642100 -0.00249500 0.00275100
v 0.03508500 0.00352800 0.18609100
v 0.07900900 0.01142800 -0.13831400
v -0.00625900 0.01288000 0.07551600
v 0.11177900 0.02767400 0.07873300
v 0.04277700 0.00378100 -0.00572400
v -0.00705600 0.00188700 -0.04850600
v -0.00330600 -0.00152500 0.14103700
v 0.09347000 0.01392400 -0.11836200
v -0.00436800 -0.00263600 0.06388900
v 0.18975000 0.02897400 0.14271700
v -0.00487200 -0.00312700 -0.07552500
v -0.00538700 -0.00273300 -0.04869300
v -0.00664300 -0.00272800 -0.13186700
v 0.18469500 0.04542800 0.00234800
v -0.00830300 0.00116200 -0.01987100
v -0.00495000 -0.00338800 0.01694700
v -0.00387700 -0.00040700 0.15114400
v 0.05046000 0.00554700 -0.09726000
v -0.00424100 0.01366800 0.15986300
v -0.00540500 -0.00235900 0.03383200
v 0.12703800 0.03063200 -0.05959500
v 0.01566100 0.00004700 0.12193200
v -0.00048800 -0.00258200 0.15753600
v 0.10070100 0.01476600 -0.06362300
v 0.04037300 0.00366800 0.11094800
v -0.00609700 -0.00251100 -0.04398800
v 0.07859700 0.01012500 0.02612000
v 0.11154900 0.01673600 0.01838400
v 0.11280600 0.01611600 0.05882100
v 0.09790400 0.01391800 -0.04560200
v 0.10069500 0.01449200 -0.02785400
v 0.04568500 0.00440100 0.16704800
v 0.01760500 -0.00032500 -0.01673200
v 0.17527700 0.02717200 0.01948600
v -0.00711500 -0.00312700 -0.08931800
v 0.08650500 0.02867000 0.00515400
v 0.04551200 0.00448600 0.03969700
v 0.14972600 0.02293900 -0.06087700
v 0.16495700 0.02487400 0.18356400
v -0.00924200 0.01250800 -0.11514500
v 0.18982200 0.02878800 0.17620600
v 0.06866200 0.00833600 -0.06615300
v 0.07045700 0.02597600 -0.13706700
v 0.10277500 0.01434200 0.07796500
v 0.06922700 0.00839600 -0.10764800
v 0.17606000 0.04248900 0.18313400
v 0.05989500 0.02416500 0.18534500
v 0.06414000 0.00717300 0.14606800
v 0.16062200 0.03621900 0.00359400
v 0.18117500 0.04401400 0.18235600
v 0.06444000 0.02499000 -0.06458400
v 0.17280200 0.03808500 0.03501100
v 0.05117800 0.00560800 -0.10831700
v 0.05805400 0.00688900 -0.07363800
v 0.10280700 0.01498300 -0.09085900
v 0.08209700 0.01080600 -0.10313300
v 0.09892000 0.01500000 -0.08648700
v 0.01835000 0.00028300 0.06480200
v 0.15093500 0.03960200 0.04679600
v 0.05334900 0.00576400 -0.02761900
v 0.11293100 0.02745100 0.10566900
v 0.03014700 0.00240900 -0.03771300
v 0.17767300 0.02760800 -0.04166700
v 0.10331400 0.01447500 0.12250200
v -0.00254600 -0.00241900 0.11192900
v 0.07342300 0.00909100 0.06237800
v 0.10065000 0.01423400 0.00920800
v 0.13731200 0.03633400 -0.13856700
v 0.13503700 0.03646800 0.18403200
v -0.00691200 0.00179100 -0.00776300
v 0.15962900 0.04156200 -0.13775700
v 0.18401000 0.04542800 -0.04380300
v -0.00576900 0.01314900 0.11545400
v 0.18531200 0.02909900 -0.07672300
v -0.00289600 -0.00263300 0.04120300
v 0.03398000 0.00259700 0.09057200
v 0.06476400 0.00745700 -0.02442200
v 0.18699300 0.03428000 0.04480400
v -0.00511800 0.00397600 0.08173200
v -0.00463500 0.00512800 0.11841700
v 0.08373000 0.01116500 -0.00491500
v -0.00581900 0.00326100 0.04039600
v 0.06204900 0.00749600 0.18481000
v -0.00589000 0.00747500 0.05991300
v 0.07407500 0.00923200 0.16658800
v -0.00206000 -0.00158400 0.18037200
v 0.05694200 0.00715200 -0.04486200
v 0.16126900 0.02504100 -0.11117000
v 0.01221500 -0.00016700 -0.08388300
v 0.09554800 0.01298800 -0.07440300
v -0.00377000 0.01361100 0.18023700
v 0.01247600 -0.00025100 -0.04476900
v 0.01577900 -0.00001600 0.10031100
v 0.09516600 0.01334200 0.18481700
v 0.01751300 0.00031000 -0.09165900
v 0.17438900 0.02695000 -0.01507100
v -0.00488900 0.01345100 0.14377700
v -0.00177100 -0.00273600 0.07980500
v 0.18009500 0.02781400 0.18314100
v 0.01257200 0.00293800 0.13647600
v 0.01159000 0.01607300 -0.09244300
v -0.00619300 0.01299900 0.09511400
v 0.15017600 0.03973000 -0.08365300
v 0.11939600 0.02507900 0.18429500
v 0.17051000 0.03801000 -0.02645700
v 0.17187500 0.03802000 -0.01057300
v -0.00320200 -0.00023600 0.16658400
v -0.00629600 -0.00289800 -0.02161100
v -0.00867100 0.01250500 -0.08370300
v 0.17217700 0.04319600 0.18106200
v 0.04152300 0.00384300 -0.07193000
v 0.17086500 0.03807100 -0.05655100
v 0.17726600 0.02804400 -0.13976900
v 0.18648000 0.03478700 0.00306800
v 0.10146800 0.01442700 0.04266600
v 0.04117700 0.00374900 0.13560600
v 0.11023700 0.02774100 0.00525700
v 0.06282800 0.00719600 0.10813300
v -0.00293800 -0.00313100 0.09790300
v 0.03058800 0.00285700 -0.11706200
v -0.00136000 0.00063600 -0.05623300
v 0.00694400 0.00234800 -0.08673200
v -0.00782400 0.00092800 -0.07433100
v 0.12052100 0.02925700 0.09814300
vn 0.16959500 -0.98543100 0.01278400
vn 0.09573000 -0.66312500 -0.74236100
vn 0.10614700 -0.99431400 -0.00847100
vn 0.15204100 -0.98837200 -0.00202800
vn 0.17019500 -0.98469100 -0.03766000
vn 0.14783400 -0.98894900 0.01120500
vn 0.17438000 -0.98455900 0.01536300
vn 0.16600800 -0.98599800 -0.01576900
vn 0.58399700 0.53331200 -0.61198500
vn 0.64172700 -0.76355600 0.07189700
vn 0.22003400 -0.97540100 0.01334000
vn 0.79859900 -0.60030700 -0.04325800
vn 0.06525600 -0.49969100 -0.86374200
vn 0.12719100 -0.70670600 0.69598100
vn 0.16285000 -0.98663600 -0.00549800
vn -0.12759400 0.67322800 -0.72834300
vn 0.80765200 -0.58945900 -0.01536300
vn 0.19730000 -0.98034200 0.00161800
vn -0.16678300 0.98599300 -0.00146500
vn 0.79527200 -0.60596500 -0.01865700
vn 0.90294000 -0.42935200 -0.01884400
vn -0.16703900 0.96623100 -0.19620100
vn 0.10602000 -0.80272800 -0.58684500
vn -0.89158400 0.45285200 -0.00193000
vn 0.16539900 -0.98621600 0.00465400
vn -0.90097100 -0.43386200 -0.00382600
vn 0.29417400 -0.95572900 -0.00666500
vn 0.17063900 -0.98533100 0.00216500
vn -0.16784400 0.98581300 -0.00122500
vn 0.11648000 -0.99270200 -0.03122700
vn 0.11125400 -0.72273400 -0.68211300
vn -0.26341900 0.96362400 0.04516600
vn 0.20228600 -0.97932500 -0.00164100
vn 0.13737500 -0.98144500 0.13376800
vn 0.15470300 -0.98791000 -0.01007300
vn 0.92882600 -0.31360500 -0.19731700
vn 0.31267900 -0.89540200 -0.31699800
vn 0.13276400 -0.99114500 -0.00217500
vn 0.12113400 -0.77619900 -0.61874200
vn 0.03407200 -0.10055200 0.99434800
vn 0.16763800 -0.98584700 -0.00190100
vn -0.17826000 -0.73442300 0.65486300
vn 0.18885300 -0.98200300 0.00214800
vn 0.19774800 -0.98021200 -0.00890500
vn 0.17230300 -0.98502900 -0.00541500
vn -0.93582000 0.35247800 0.00097400
vn 0.22321300 -0.97476500 -0.00304000
vn -0.09091900 0.48681200 -0.86876200
vn 0.04331600 -0.71496000 -0.69782200
vn 0.18715600 -0.98232700 -0.00258100
vn 0.15965800 -0.98717200 0.00119500
vn 0.63101400 0.77021100 0.09271600
vn -0.13371400 -0.99100500 -0.00549900
vn 0.14417100 -0.56713800 -0.81090600
vn 0.70286500 -0.71116600 0.01492300
vn 0.52200100 -0.85287400 -0.01102700
vn 0.15818700 -0.91801800 0.36362100
vn -0.56001600 -0.82842000 0.01011000
vn 0.40816800 -0.90538700 0.11693300
vn -0.89715700 -0.43514400 0.07589600
vn 0.18380800 -0.98239900 -0.03327200
vn -0.13565400 0.71125900 -0.68971600
vn -0.16919800 0.98542300 0.01768400
vn 0.60699000 -0.76351600 -0.22046800
vn -0.79606100 0.60500500 0.01600000
vn 0.81422600 0.58035600 -0.01494300
vn 0.70385400 -0.71023300 -0.01258300
vn -0.77014400 -0.63779500 -0.00974200
vn -0.99868400 -0.02113200 0.04673400
vn 0.14192700 -0.98971500 0.01789800
vn -0.24460600 0.53381300 0.80945100
vn 0.16189600 -0.98679100 -0.00569200
vn 0.14844200 -0.98884800 -0.01199000
vn -0.99892800 -0.01914900 0.04215300
vn 0.80259300 -0.30366100 0.51345300
vn -0.98144800 -0.19005600 0.02525900
vn 0.17115300 -0.98522500 -0.00619700
vn -0.05160300 0.47871100 0.87645500
vn 0.95619900 -0.29179900 -0.02314500
vn -0.21034600 -0.84468000 0.49221000
vn -0.60971200 -0.79250000 -0.01394300
vn -0.16698800 0.98595400 -0.00321600
vn -0.15242400 0.95451000 0.25627600
vn 0.08271100 -0.46671000 -0.88053400
vn 0.48703000 -0.87322900 -0.01653800
vn 0.16004700 -0.98710000 -0.00440300
vn -0.22180200 -0.74217100 -0.63244500
vn 0.14905700 -0.84956700 0.50598200
vn -0.03959300 -0.95939900 -0.27926100
vn -0.91540100 0.40243100 0.00956700
vn 0.67904100 0.73397300 -0.01363400
vn 0.06220900 -0.76396800 0.64224800
vn -0.49870500 0.34734000 -0.79413400
vn 0.57167400 0.82048100 0.00037700
vn 0.17784100 -0.98405900 -0.00014000
vn -0.88958700 0.45661600 0.01172800
vn -0.87796400 -0.47863700 0.00929000
vn 0.16188400 -0.98663900 0.01836500
vn 0.14901900 -0.98873600 -0.01394300
vn -0.00861700 -0.99231900 -0.12340800
vn -0.33929100 -0.93889800 0.05790000
vn 0.15118100 -0.98849400 0.00500600
vn 0.97987700 -0.19595200 0.03800500
vn 0.15206300 -0.98836400 0.00355700
vn 0.68349100 -0.72981200 0.01465900
vn 0.21656100 -0.97626600 -0.00254600
vn 0.58255200 0.81267400 -0.01396000
vn -0.56038000 -0.82821200 -0.00614400
vn -0.99406500 -0.10397600 0.03199100
vn 0.23518100 0.94484100 0.22796100
vn -0.05591100 0.44099300 0.89576800
vn 0.16340000 -0.98656000 -0.00057700
vn 0.17633900 -0.98432000 0.00428300
vn -0.78993000 -0.61235000 0.03221400
vn 0.22665400 -0.95342500 0.19901800
vn -0.13121100 -0.99135200 0.00208800
vn 0.15872900 -0.98730500 -0.00588400
vn 0.41170300 -0.57265200 0.70892200
vn 0.54541400 -0.83812700 -0.00816400
vn 0.42223100 -0.90563500 -0.03932600
vn 0.19013700 -0.98170800 0.00986300
vn 0.17587600 -0.98440700 -0.00331200
vn 0.39590500 -0.91788800 0.02722500
vn 0.03187900 -0.87469800 -0.48362000
vn -0.13614000 0.94024100 -0.31210900
vn -0.85276100 -0.24466700 -0.46145000
vn -0.71127800 -0.70267400 0.01823700
vn -0.78703800 -0.61640000 0.02495100
vn 0.09263300 -0.47412600 0.87557100
vn 0.07185600 -0.50063800 -0.86266900
vn -0.89643400 0.44313000 0.00649600
vn 0.80397000 -0.59420000 -0.02363400
vn 0.17426000 -0.98466800 0.00789300
vn -0.80256700 0.59652100 -0.00705600
vn 0.55525400 -0.81184500 -0.18055800
vn 0.14869200 -0.98878600 0.01391000
vn -0.15901800 -0.98702000 0.02245700
vn 0.65052600 -0.75946000 -0.00597100
vn 0.64702500 -0.76154500 0.03752500
vn 0.79228900 -0.55203800 -0.25987000
vn -0.60277300 -0.69100900 -0.39896300
vn 0.40957000 0.91226600 -0.00494100
vn -0.77868300 0.62598400 0.04238400
vn -0.25047200 -0.96806500 0.01066300
vn -0.82778700 -0.55106800 0.10532500
vn 0.15500200 -0.98790900 0.00331500
vn -0.48261600 0.87574600 0.01224800
vn -0.83524600 -0.54960100 0.01742700
vn 0.15972400 -0.61675100 0.77078300
vn -0.22894800 -0.97343200 -0.00356400
vn -0.19678500 -0.98038400 0.01108000
vn 0.21722400 -0.97608200 -0.00876600
vn 0.15110500 -0.98851500 0.00226100
vn 0.60105000 -0.79555000 0.07641700
vn 0.17470100 -0.98462100 0.00043500
vn 0.81294400 -0.58198400 -0.02040900
vn 0.71785600 -0.69591900 -0.01948800
vn 0.20263800 -0.97924700 0.00354500
vn 0.20036100 -0.97972000 -0.00224400
vn 0.15727300 -0.98745400 0.01413900
vn 0.12346400 -0.99230800 0.00901800
vn -0.46538100 -0.88498100 0.01512300
vn -0.47971000 -0.83650800 0.26482500
vn -0.16800300 0.98578600 0.00124400
vn 0.16698000 -0.98595700 -0.00258200
vn 0.14410000 -0.79939300 0.58327200
vn 0.12193100 -0.57612000 0.80821900
vn -0.85247900 0.52036800 -0.04997200
vn 0.84710400 -0.35114300 0.39889100
vn 0.16237500 -0.98663200 -0.01385600
vn -0.13357900 0.71753300 -0.68359600
vn 0.17613200 -0.98434700 -0.00613900
vn 0.17451400 -0.98304500 -0.05627200
vn -0.01610500 0.38473600 0.92288600
vn -0.10124800 0.69908500 0.70783400
vn 0.16493700 -0.98630000 0.00276300
vn 0.13327500 -0.99107300 -0.00349600
vn 0.28380300 0.48111300 0.82944900
vn -0.16926900 0.98557000 0.00043600
vn -0.36232600 -0.93198600 0.01102300
vn 0.15485500 -0.98707700 -0.04120700
vn 0.15832700 -0.98738500 -0.00171500
vn 0.12005000 -0.99276700 0.00123100
vn 0.19287500 -0.98019100 -0.04500000
vn 0.26570900 -0.96403900 -0.00526300
vn 0.13531300 -0.99076200 0.00905200
vn -0.16536900 0.98623200 -0.00007000
vn 0.20872500 -0.97782100 -0.01731900
vn 0.48937500 -0.58508600 -0.64667300
vn 0.27777500 -0.96064600 -0.00073500
vn 0.12393000 -0.99227200 -0.00605300
vn 0.17185200 -0.98511900 -0.00269000
vn 0.72586500 -0.65462800 -0.21114400
vn 0.17083200 -0.98528700 -0.00510100
vn 0.19121100 -0.98154500 -0.00296200
vn -0.09218000 0.47670200 -0.87421900
vn -0.11528000 0.72366600 0.68045500
vn -0.99947300 -0.00055800 0.03244400
vn -0.10741100 0.78222600 -0.61366600
vn 0.68835400 0.72532100 -0.00884200
vn -0.88190600 0.47119700 0.01466400
vn 0.40308300 -0.91512400 -0.00846300
vn -0.16432200 -0.98626600 0.01665100
vn 0.15241200 -0.98831700 0.00090800
vn 0.14902300 -0.98881300 -0.00642400
vn 0.93170400 -0.35921800 -0.05376100
vn -0.99964100 -0.01674900 0.02093200
vn -0.99954800 -0.02117600 -0.02134700
vn 0.18060600 -0.98355500 -0.00001300
vn -0.99683000 -0.07919300 0.00770700
vn 0.15028200 -0.84643500 0.51084500
vn -0.99723100 -0.07299700 0.01423600
vn 0.16663800 -0.98591500 0.01428000
vn -0.72414800 -0.61590300 0.31027900
vn 0.16958100 -0.98547000 0.00952800
vn 0.16908900 -0.98556300 -0.00869300
vn -0.16191500 -0.96445600 0.20882600
vn 0.28092900 -0.95966400 -0.01110700
vn -0.90205500 0.16497700 0.39884800
vn 0.03335400 -0.99244200 -0.11809300
vn -0.06560500 -0.99739100 0.03013200
vn 0.09905200 -0.48928700 0.86648000
vn 0.14686500 -0.98915500 0.00158000
vn -0.47310400 -0.88099400 0.00475200
vn -0.73749700 0.67510600 0.01815100
vn -0.31341600 -0.94938300 -0.02101900
vn 0.29154500 -0.28734700 0.91237800
vn -0.13210900 -0.96195200 -0.23915700
vn -0.16860000 0.98568400 0.00146300
vn -0.87655900 0.48122100 0.00846800
vn -0.16992500 0.98545200 0.00325700
vn 0.01887200 -0.01724000 0.99967300
vn -0.19077600 -0.98160100 0.00798400
vn -0.68270200 -0.73036700 0.02193800
vn -0.91515700 -0.40095300 0.04152100
vn -0.19023600 -0.98090500 0.04044300
vn -0.88935900 0.45719400 0.00371200
vn -0.13569500 0.90891300 0.39428900
vn 0.15020600 -0.98865500 0.00018100
vn -0.71444000 -0.60906200 0.34441100
vn 0.36239000 -0.63210900 -0.68491800
vn 0.97474100 -0.22308700 0.01059100
vn 0.17245400 -0.98501300 -0.00306900
vn 0.14793100 -0.98898800 -0.00447300
vn 0.70505200 -0.70901400 -0.01416100
vn 0.16694100 -0.98596700 -0.00001800
vn 0.29882100 -0.92659000 0.22833600
vn 0.16475900 -0.98597500 -0.02661900
vn 0.44474100 -0.89504500 -0.03318100
vn -0.14200300 -0.81816200 0.55717600
vn -0.98855100 -0.12896100 0.07833000
vn 0.17794300 -0.98378600 -0.02237700
vt 0.55640899 0.35159520
vt 0.71720653 0.49130258
vt 0.08341036 0.04356838
vt 0.14954989 0.07183499
vt 0.29156955 0.19239992
vt 0.36526946 0.21946759
vt 0.33458586 0.20501931
vt 0.33735382 0.20526316
vt 0.95937990 0.99042877
vt 0.59910883 0.39918716
vt 0.51639674 0.32716927
vt 0.99418780 0.65801666
vt 0.59811920 0.41326966
vt 0.76475907 0.49412721
vt 0.28158783 0.16931518
vt 0.52825222 0.68538915
vt 0.60285134 0.40646210
vt 0.31524535 0.18181264
vt 0.78965559 0.86421459
vt 0.60376562 0.63420037
vt 0.98374895 0.66789270
vt 0.65857714 0.78140622
vt 0.84988245 0.55626905
vt 0.00774625 0.32432432
vt 0.41831773 0.25657387
vt 0.01827051 0.03879293
vt 0.52851344 0.34348710
vt 0.27501708 0.16277179
vt 0.27833260 0.51207072
vt 0.13834244 0.06962000
vt 0.78749046 0.74846576
vt 0.01455311 0.11475310
vt 0.55513302 0.36017070
vt 0.13323856 0.07165210
vt 0.20895290 0.12495428
vt 0.97666580 0.68228002
vt 0.05648435 0.09305019
vt 0.12623076 0.07455802
vt 0.30804666 0.20209307
vt 0.39145702 0.32152002
vt 0.41403267 0.25761024
vt 0.08009987 0.03503353
vt 0.45792810 0.28547043
vt 0.19821766 0.10692949
vt 0.44739883 0.27963828
vt 0.01405076 0.11176590
vt 0.20801853 0.12072749
vt 0.59825986 0.72375533
vt 0.10861833 0.06935582
vt 0.30818732 0.18512497
vt 0.27355022 0.16169478
vt 0.01949624 0.13489128
vt 0.10729213 0.06860394
vt 0.67543604 0.43877261
vt 0.98498473 0.66470230
vt 0.94899630 0.63011583
vt 0.64760077 0.41272099
vt 0.92984668 0.62304410
vt 0.03745027 0.08274741
vt 0.02031005 0.07256655
vt 0.39830406 0.27085958
vt 0.20856107 0.46929486
vt 0.58248101 0.72454786
vt 0.61851967 0.40002032
vt 0.01049411 0.32818533
vt 0.97760519 0.98754318
vt 0.59809408 0.63332656
vt 0.91989511 0.83649665
vt 0.02042559 0.12840886
vt 0.36632942 0.21621622
vt 0.07545814 0.37949604
vt 0.35461962 0.20865678
vt 0.13479082 0.08073562
vt 0.02241993 0.26350335
vt 0.59487401 0.62887624
vt 0.02288711 0.08874213
vt 0.56466764 0.35787442
vt 0.85715649 0.88106076
vt 0.98023249 0.69506198
vt 0.90789394 0.61893924
vt 0.00941406 0.01192847
vt 0.32880380 0.54931924
vt 0.78864084 0.86606381
vt 0.85237913 0.58813249
vt 0.97231041 0.66348303
vt 0.80820239 0.76990449
vt 0.91263614 0.83625279
vt 0.45521541 0.28479984
vt 0.08830326 0.11471246
vt 0.00609352 0.32680350
vt 0.96805550 0.99372079
vt 0.85082185 0.80774233
vt 0.02800104 0.34131274
vt 0.98486416 1.00000000
vt 0.55084797 0.34875025
vt 0.01410602 0.33031904
vt 0.02657939 0.02615322
vt 0.44116967 0.29067263
vt 0.18957722 0.11052632
vt 0.12247317 0.06655151
vt 0.10852791 0.12481203
vt 0.20012157 0.10485674
vt 0.03686754 0.01290388
vt 0.42392899 0.25891079
vt 0.01673331 0.01607397
vt 0.17183418 0.07112376
vt 0.98132761 0.99469620
vt 0.93221276 0.62034139
vt 0.01680364 0.11188783
vt 0.98166419 0.99733794
vt 0.58391271 0.71257874
vt 0.36193385 0.21501727
vt 0.27336435 0.15913432
vt 0.92018145 0.62749441
vt 0.05254089 0.09331437
vt 0.08505807 0.10904288
vt 0.33959932 0.20079252
vt 0.62641161 0.42028043
vt 0.04936603 0.06968096
vt 0.96209259 0.64257265
vt 0.54374473 0.36395042
vt 0.42739521 0.26474294
vt 0.95171402 0.63011583
vt 0.07437809 0.02885592
vt 0.02194772 0.13972770
vt 0.92883193 0.62026011
vt 0.91394727 0.82883560
vt 0.01417132 0.01814672
vt 0.22267713 0.14054054
vt 0.44332978 0.30107702
vt 0.01498513 0.33058321
vt 0.60795021 0.63121317
vt 0.26131797 0.14568177
vt 0.01098139 0.10719366
vt 0.02981956 0.03785816
vt 0.51597476 0.35179841
vt 0.02448459 0.01528145
vt 0.99963831 0.65763056
vt 0.02195274 0.00530380
vt 0.01936563 0.01331030
vt 0.01305610 0.01341191
vt 0.97424446 0.99199350
vt 0.00471708 0.09246088
vt 0.02156091 0.00000000
vt 0.02695113 0.06057712
vt 0.29991360 0.18156879
vt 0.02512257 0.34659622
vt 0.01927521 0.02091038
vt 0.68460395 0.69132290
vt 0.12510047 0.06980289
vt 0.04397581 0.01637878
vt 0.55229976 0.36890876
vt 0.24924145 0.14338549
vt 0.01579894 0.01782158
vt 0.44126010 0.27459866
vt 0.60679480 0.40894127
vt 0.61310935 0.39634221
vt 0.53824901 0.35167649
vt 0.55226962 0.36334078
vt 0.27592634 0.15828084
vt 0.13486617 0.06224345
vt 0.92693305 0.62101199
vt 0.01068501 0.00530380
vt 0.48098601 0.65145296
vt 0.27505727 0.16000813
vt 0.79857734 0.53499289
vt 0.87509042 0.57431416
vt 0.00000000 0.32302378
vt 1.00000000 0.65385084
vt 0.39135153 0.23824426
vt 0.40036873 0.59670799
vt 0.56271852 0.36029262
vt 0.39418981 0.23946352
vt 0.93086646 0.93226986
vt 0.34731041 0.55990652
vt 0.36863521 0.21461085
vt 0.85331351 0.80485674
vt 0.95656171 0.96325950
vt 0.37014227 0.57667141
vt 0.91449986 0.84277586
vt 0.30352048 0.18280837
vt 0.33806213 0.20883967
vt 0.56287928 0.37331843
vt 0.45884238 0.28843731
vt 0.54335289 0.37366389
vt 0.13860869 0.07459866
vt 0.80465077 0.87360293
vt 0.31442652 0.18597846
vt 0.61373729 0.62668157
vt 0.19787104 0.11780126
vt 0.93896938 0.62987198
vt 0.56542619 0.36299533
vt 0.03363742 0.01969112
vt 0.41526846 0.25358667
vt 0.55204356 0.35809795
vt 0.73621549 0.80719366
vt 0.72478700 0.80991668
vt 0.01170478 0.10524284
vt 0.84832516 0.91343223
vt 0.97080336 0.99199350
vt 0.01744665 0.33604958
vt 0.97734397 0.66017070
vt 0.03187919 0.01534241
vt 0.21712615 0.12162162
vt 0.37176988 0.22038204
vt 0.98578849 0.76545418
vt 0.02071696 0.14964438
vt 0.02314331 0.17305426
vt 0.46704577 0.29573257
vt 0.01719547 0.13511481
vt 0.35813105 0.22117456
vt 0.01683881 0.22074782
vt 0.41854378 0.25645194
vt 0.03607885 0.03665922
vt 0.33247599 0.21418411
vt 0.85656372 0.57770778
vt 0.10778945 0.06545418
vt 0.52641362 0.33277789
vt 0.02748865 0.34543792
vt 0.10910059 0.06374721
vt 0.12569324 0.06852266
vt 0.52449463 0.33997155
vt 0.13440401 0.07514733
vt 0.92247217 0.61650071
vt 0.02186734 0.34218655
vt 0.03753064 0.01324934
vt 0.95113632 0.63405812
vt 0.10958285 0.12855111
vt 0.10464976 0.39546840
vt 0.01531668 0.33300142
vt 0.80083792 0.87620402
vt 0.64621428 0.57847998
vt 0.90298597 0.84125178
vt 0.90984307 0.84145499
vt 0.03034200 0.06405202
vt 0.01479926 0.00995733
vt 0.00286842 0.32296281
vt 0.91136017 0.94663686
vt 0.25501849 0.14694168
vt 0.90476932 0.84249136
vt 0.93692481 0.63873197
vt 0.98321143 0.77575696
vt 0.55615280 0.36201991
vt 0.25328035 0.14503150
vt 0.60020395 0.63257468
vt 0.36204437 0.21507824
vt 0.03166821 0.00522252
vt 0.20008640 0.12690510
vt 0.03959531 0.08177200
vt 0.08131053 0.11656167
vt 0.00712334 0.08770575
vt 0.65186573 0.66338143
f 143/143/143 236/236/236 154/154/154
f 135/135/135 69/69/69 145/145/145
f 52/52/52 135/135/135 103/103/103
f 52/52/52 103/103/103 125/125/125
f 103/103/103 193/193/193 125/125/125
f 251/251/251 105/105/105 139/139/139
f 137/137/137 32/32/32 60/60/60
f 26/26/26 137/137/137 32/32/32
f 109/109/109 148/148/148 210/210/210
f 139/139/139 251/251/251 163/163/163
f 144/144/144 109/109/109 128/128/128
f 148/148/148 109/109/109 144/144/144
f 144/144/144 203/203/203 148/148/148
f 198/198/198 143/143/143 236/236/236
f 128/128/128 198/198/198 236/236/236
f 134/134/134 154/154/154 140/140/140
f 140/140/140 105/105/105 134/134/134
f 26/26/26 210/210/210 148/148/148
f 76/76/76 193/193/193 247/247/247
f 141/141/141 93/93/93 49/49/49
f 149/149/149 92/92/92 67/67/67
f 146/146/146 181/181/181 173/173/173
f 41/41/41 15/15/15 146/146/146
f 173/173/173 41/41/41 146/146/146
f 249/249/249 116/116/116 89/89/89
f 184/184/184 41/41/41 173/173/173
f 234/234/234 224/224/224 127/127/127
f 41/41/41 182/182/182 15/15/15
f 182/182/182 41/41/41 170/170/170
f 233/233/233 67/67/67 92/92/92
f 241/241/241 9/9/9 36/36/36
f 241/241/241 36/36/36 85/85/85
f 241/241/241 85/85/85 216/216/216
f 170/170/170 41/41/41 45/45/45
f 45/45/45 41/41/41 218/218/218
f 202/202/202 216/216/216 85/85/85
f 67/67/67 233/233/233 245/245/245
f 121/121/121 27/27/27 184/184/184
f 121/121/121 185/185/185 27/27/27
f 121/121/121 183/183/183 185/185/185
f 185/185/185 218/218/218 27/27/27
f 185/185/185 183/183/183 152/152/152
f 92/92/92 240/240/240 233/233/233
f 218/218/218 185/185/185 152/152/152
f 166/166/166 183/183/183 216/216/216
f 183/183/183 166/166/166 118/118/118
f 118/118/118 75/75/75 10/10/10
f 184/184/184 27/27/27 41/41/41
f 218/218/218 41/41/41 27/27/27
f 152/152/152 10/10/10 158/158/158
f 159/159/159 158/158/158 10/10/10
f 10/10/10 67/67/67 17/17/17
f 10/10/10 152/152/152 183/183/183
f 10/10/10 75/75/75 67/67/67
f 70/70/70 215/215/215 182/182/182
f 70/70/70 182/182/182 170/170/170
f 118/118/118 166/166/166 149/149/149
f 245/245/245 233/233/233 177/177/177
f 245/245/245 177/177/177 180/180/180
f 114/114/114 240/240/240 80/80/80
f 20/20/20 245/245/245 180/180/180
f 245/245/245 17/17/17 67/67/67
f 70/70/70 104/104/104 215/215/215
f 45/45/45 70/70/70 170/170/170
f 70/70/70 45/45/45 11/11/11
f 70/70/70 11/11/11 158/158/158
f 158/158/158 104/104/104 70/70/70
f 114/114/114 224/224/224 234/234/234
f 11/11/11 45/45/45 218/218/218
f 233/233/233 234/234/234 177/177/177
f 218/218/218 152/152/152 11/11/11
f 177/177/177 234/234/234 127/127/127
f 64/64/64 189/189/189 54/54/54
f 108/108/108 126/126/126 68/68/68
f 118/118/118 10/10/10 183/183/183
f 152/152/152 158/158/158 11/11/11
f 216/216/216 202/202/202 166/166/166
f 80/80/80 166/166/166 202/202/202
f 180/180/180 177/177/177 127/127/127
f 202/202/202 191/191/191 80/80/80
f 114/114/114 80/80/80 191/191/191
f 6/6/6 7/7/7 8/8/8
f 8/8/8 205/205/205 6/6/6
f 17/17/17 159/159/159 10/10/10
f 33/33/33 159/159/159 17/17/17
f 8/8/8 215/215/215 104/104/104
f 8/8/8 188/188/188 215/215/215
f 205/205/205 8/8/8 104/104/104
f 104/104/104 43/43/43 205/205/205
f 28/28/28 25/25/25 155/155/155
f 195/195/195 209/209/209 33/33/33
f 188/188/188 8/8/8 18/18/18
f 168/168/168 81/81/81 163/163/163
f 25/25/25 209/209/209 195/195/195
f 18/18/18 8/8/8 7/7/7
f 17/17/17 156/156/156 33/33/33
f 156/156/156 17/17/17 245/245/245
f 195/195/195 33/33/33 156/156/156
f 6/6/6 205/205/205 43/43/43
f 43/43/43 209/209/209 6/6/6
f 155/155/155 25/25/25 195/195/195
f 155/155/155 195/195/195 243/243/243
f 158/158/158 43/43/43 104/104/104
f 159/159/159 43/43/43 158/158/158
f 33/33/33 43/43/43 159/159/159
f 86/86/86 20/20/20 180/180/180
f 191/191/191 224/224/224 114/114/114
f 209/209/209 43/43/43 33/33/33
f 7/7/7 133/133/133 18/18/18
f 224/224/224 123/123/123 162/162/162
f 123/123/123 56/56/56 162/162/162
f 25/25/25 113/113/113 7/7/7
f 25/25/25 7/7/7 6/6/6
f 25/25/25 6/6/6 209/209/209
f 79/79/79 21/21/21 202/202/202
f 156/156/156 20/20/20 157/157/157
f 191/191/191 202/202/202 21/21/21
f 55/55/55 191/191/191 21/21/21
f 28/28/28 113/113/113 25/25/25
f 224/224/224 191/191/191 55/55/55
f 224/224/224 55/55/55 123/123/123
f 58/58/58 68/68/68 180/180/180
f 132/132/132 20/20/20 86/86/86
f 58/58/58 162/162/162 120/120/120
f 252/252/252 132/132/132 86/86/86
f 12/12/12 108/108/108 58/58/58
f 144/144/144 38/38/38 4/4/4
f 157/157/157 132/132/132 64/64/64
f 186/186/186 144/144/144 4/4/4
f 80/80/80 92/92/92 166/166/166
f 4/4/4 38/38/38 102/102/102
f 4/4/4 102/102/102 28/28/28
f 86/86/86 180/180/180 68/68/68
f 4/4/4 28/28/28 165/165/165
f 162/162/162 127/127/127 224/224/224
f 189/189/189 132/132/132 252/252/252
f 126/126/126 108/108/108 12/12/12
f 12/12/12 23/23/23 126/126/126
f 31/31/31 252/252/252 86/86/86
f 189/189/189 252/252/252 31/31/31
f 54/54/54 189/189/189 31/31/31
f 87/87/87 68/68/68 126/126/126
f 28/28/28 155/155/155 165/165/165
f 156/156/156 245/245/245 20/20/20
f 162/162/162 180/180/180 127/127/127
f 180/180/180 162/162/162 58/58/58
f 68/68/68 58/58/58 108/108/108
f 162/162/162 56/56/56 120/120/120
f 118/118/118 149/149/149 75/75/75
f 189/189/189 64/64/64 132/132/132
f 81/81/81 141/141/141 73/73/73
f 73/73/73 141/141/141 49/49/49
f 149/149/149 67/67/67 75/75/75
f 49/49/49 39/39/39 248/248/248
f 181/181/181 248/248/248 5/5/5
f 35/35/35 248/248/248 181/181/181
f 35/35/35 223/223/223 73/73/73
f 53/53/53 217/217/217 239/239/239
f 106/106/106 30/30/30 47/47/47
f 157/157/157 20/20/20 132/132/132
f 54/54/54 31/31/31 23/23/23
f 23/23/23 31/31/31 87/87/87
f 23/23/23 87/87/87 126/126/126
f 165/165/165 155/155/155 122/122/122
f 31/31/31 86/86/86 87/87/87
f 68/68/68 87/87/87 86/86/86
f 122/122/122 155/155/155 243/243/243
f 156/156/156 157/157/157 195/195/195
f 195/195/195 157/157/157 243/243/243
f 62/62/62 39/39/39 49/49/49
f 122/122/122 243/243/243 194/194/194
f 166/166/166 92/92/92 149/149/149
f 250/250/250 217/217/217 116/116/116
f 80/80/80 240/240/240 92/92/92
f 139/139/139 59/59/59 249/249/249
f 249/249/249 105/105/105 139/139/139
f 59/59/59 116/116/116 249/249/249
f 116/116/116 59/59/59 250/250/250
f 53/53/53 89/89/89 116/116/116
f 114/114/114 233/233/233 240/240/240
f 234/234/234 233/233/233 114/114/114
f 89/89/89 140/140/140 249/249/249
f 220/220/220 140/140/140 89/89/89
f 172/172/172 157/157/157 64/64/64
f 64/64/64 95/95/95 172/172/172
f 73/73/73 49/49/49 248/248/248
f 5/5/5 248/248/248 39/39/39
f 163/163/163 81/81/81 73/73/73
f 163/163/163 59/59/59 139/139/139
f 163/163/163 250/250/250 59/59/59
f 73/73/73 223/223/223 163/163/163
f 223/223/223 217/217/217 163/163/163
f 163/163/163 217/217/217 250/250/250
f 217/217/217 53/53/53 116/116/116
f 248/248/248 35/35/35 73/73/73
f 223/223/223 35/35/35 15/15/15
f 181/181/181 146/146/146 35/35/35
f 146/146/146 15/15/15 35/35/35
f 239/239/239 217/217/217 223/223/223
f 239/239/239 223/223/223 15/15/15
f 239/239/239 15/15/15 182/182/182
f 249/249/249 140/140/140 105/105/105
f 154/154/154 140/140/140 220/220/220
f 236/236/236 154/154/154 220/220/220
f 220/220/220 89/89/89 53/53/53
f 30/30/30 99/99/99 47/47/47
f 220/220/220 53/53/53 30/30/30
f 53/53/53 99/99/99 30/30/30
f 53/53/53 239/239/239 99/99/99
f 47/47/47 99/99/99 50/50/50
f 50/50/50 99/99/99 239/239/239
f 50/50/50 239/239/239 182/182/182
f 182/182/182 215/215/215 50/50/50
f 106/106/106 47/47/47 190/190/190
f 47/47/47 50/50/50 190/190/190
f 106/106/106 220/220/220 30/30/30
f 161/161/161 220/220/220 106/106/106
f 3/3/3 236/236/236 220/220/220
f 220/220/220 161/161/161 3/3/3
f 106/106/106 190/190/190 44/44/44
f 161/161/161 106/106/106 44/44/44
f 190/190/190 50/50/50 44/44/44
f 188/188/188 50/50/50 215/215/215
f 188/188/188 44/44/44 50/50/50
f 133/133/133 161/161/161 44/44/44
f 18/18/18 44/44/44 188/188/188
f 133/133/133 44/44/44 18/18/18
f 128/128/128 236/236/236 3/3/3
f 3/3/3 144/144/144 128/128/128
f 38/38/38 3/3/3 161/161/161
f 144/144/144 3/3/3 38/38/38
f 38/38/38 161/161/161 102/102/102
f 102/102/102 161/161/161 133/133/133
f 133/133/133 113/113/113 102/102/102
f 7/7/7 113/113/113 133/133/133
f 113/113/113 28/28/28 102/102/102
f 98/98/98 130/130/130 13/13/13
f 98/98/98 39/39/39 130/130/130
f 39/39/39 98/98/98 5/5/5
f 5/5/5 98/98/98 61/61/61
f 98/98/98 136/136/136 61/61/61
f 61/61/61 173/173/173 5/5/5
f 5/5/5 173/173/173 181/181/181
f 184/184/184 61/61/61 136/136/136
f 173/173/173 61/61/61 184/184/184
f 98/98/98 121/121/121 136/136/136
f 121/121/121 184/184/184 136/136/136
f 216/216/216 121/121/121 98/98/98
f 183/183/183 121/121/121 216/216/216
f 98/98/98 13/13/13 2/2/2
f 2/2/2 216/216/216 98/98/98
f 216/216/216 2/2/2 84/84/84
f 216/216/216 84/84/84 241/241/241
f 63/63/63 94/94/94 19/19/19
f 107/107/107 66/66/66 187/187/187
f 197/197/197 63/63/63 111/111/111
f 94/94/94 107/107/107 19/19/19
f 197/197/197 83/83/83 63/63/63
f 83/83/83 110/110/110 63/63/63
f 110/110/110 94/94/94 63/63/63
f 147/147/147 175/175/175 63/63/63
f 111/111/111 63/63/63 175/175/175
f 66/66/66 142/142/142 187/187/187
f 65/65/65 164/164/164 179/179/179
f 29/29/29 164/164/164 65/65/65
f 147/147/147 82/82/82 225/225/225
f 219/219/219 71/71/71 147/147/147
f 40/40/40 111/111/111 175/175/175
f 147/147/147 71/71/71 175/175/175
f 82/82/82 187/187/187 29/29/29
f 107/107/107 187/187/187 19/19/19
f 91/91/91 231/231/231 200/200/200
f 187/187/187 82/82/82 19/19/19
f 63/63/63 82/82/82 147/147/147
f 82/82/82 63/63/63 19/19/19
f 164/164/164 200/200/200 231/231/231
f 142/142/142 200/200/200 164/164/164
f 187/187/187 142/142/142 164/164/164
f 96/96/96 29/29/29 65/65/65
f 131/131/131 29/29/29 96/96/96
f 230/230/230 29/29/29 131/131/131
f 82/82/82 230/230/230 201/201/201
f 82/82/82 29/29/29 230/230/230
f 225/225/225 82/82/82 201/201/201
f 187/187/187 164/164/164 29/29/29
f 65/65/65 24/24/24 198/198/198
f 65/65/65 198/198/198 109/109/109
f 134/134/134 154/154/154 143/143/143
f 143/143/143 46/46/46 134/134/134
f 26/26/26 212/212/212 210/210/210
f 26/26/26 207/207/207 212/212/212
f 207/207/207 26/26/26 32/32/32
f 207/207/207 32/32/32 60/60/60
f 207/207/207 60/60/60 97/97/97
f 207/207/207 97/97/97 76/76/76
f 96/96/96 65/65/65 210/210/210
f 96/96/96 210/210/210 212/212/212
f 237/237/237 163/163/163 251/251/251
f 90/90/90 251/251/251 105/105/105
f 105/105/105 134/134/134 90/90/90
f 24/24/24 46/46/46 198/198/198
f 198/198/198 46/46/46 143/143/143
f 128/128/128 109/109/109 198/198/198
f 168/168/168 163/163/163 237/237/237
f 134/134/134 46/46/46 90/90/90
f 65/65/65 109/109/109 210/210/210
f 208/208/208 230/230/230 76/76/76
f 230/230/230 208/208/208 201/201/201
f 208/208/208 74/74/74 201/201/201
f 69/69/69 74/74/74 208/208/208
f 145/145/145 74/74/74 69/69/69
f 46/46/46 24/24/24 90/90/90
f 207/207/207 131/131/131 212/212/212
f 230/230/230 131/131/131 207/207/207
f 207/207/207 76/76/76 230/230/230
f 193/193/193 208/208/208 76/76/76
f 208/208/208 193/193/193 125/125/125
f 208/208/208 125/125/125 52/52/52
f 52/52/52 135/135/135 208/208/208
f 69/69/69 208/208/208 135/135/135
f 90/90/90 237/237/237 251/251/251
f 74/74/74 225/225/225 201/201/201
f 130/130/130 39/39/39 171/171/171
f 2/2/2 13/13/13 48/48/48
f 62/62/62 93/93/93 168/168/168
f 229/229/229 62/62/62 168/168/168
f 237/237/237 229/229/229 168/168/168
f 84/84/84 2/2/2 196/196/196
f 229/229/229 237/237/237 90/90/90
f 90/90/90 179/179/179 229/229/229
f 179/179/179 90/90/90 24/24/24
f 65/65/65 179/179/179 24/24/24
f 229/229/229 171/171/171 62/62/62
f 171/171/171 229/229/229 179/179/179
f 231/231/231 199/199/199 22/22/22
f 16/16/16 171/171/171 179/179/179
f 22/22/22 16/16/16 179/179/179
f 22/22/22 48/48/48 16/16/16
f 231/231/231 22/22/22 179/179/179
f 22/22/22 196/196/196 48/48/48
f 199/199/199 196/196/196 22/22/22
f 9/9/9 199/199/199 91/91/91
f 241/241/241 199/199/199 9/9/9
f 168/168/168 141/141/141 81/81/81
f 39/39/39 62/62/62 171/171/171
f 130/130/130 16/16/16 13/13/13
f 231/231/231 91/91/91 199/199/199
f 212/212/212 131/131/131 96/96/96
f 164/164/164 231/231/231 179/179/179
f 2/2/2 48/48/48 196/196/196
f 141/141/141 168/168/168 93/93/93
f 130/130/130 171/171/171 16/16/16
f 13/13/13 16/16/16 48/48/48
f 84/84/84 196/196/196 199/199/199
f 241/241/241 84/84/84 199/199/199
f 93/93/93 62/62/62 49/49/49
f 147/147/147 225/225/225 74/74/74
f 174/174/174 167/167/167 227/227/227
f 178/178/178 227/227/227 169/169/169
f 247/247/247 115/115/115 119/119/119
f 150/150/150 101/101/101 221/221/221
f 150/150/150 228/228/228 101/101/101
f 103/103/103 119/119/119 37/37/37
f 100/100/100 228/228/228 150/150/150
f 135/135/135 103/103/103 37/37/37
f 135/135/135 37/37/37 124/124/124
f 151/151/151 145/145/145 135/135/135
f 124/124/124 228/228/228 100/100/100
f 235/235/235 145/145/145 151/151/151
f 214/214/214 235/235/235 151/151/151
f 160/160/160 129/129/129 42/42/42
f 129/129/129 160/160/160 211/211/211
f 203/203/203 26/26/26 148/148/148
f 186/186/186 203/203/203 144/144/144
f 192/192/192 95/95/95 64/64/64
f 192/192/192 64/64/64 54/54/54
f 137/137/137 203/203/203 186/186/186
f 54/54/54 23/23/23 192/192/192
f 77/77/77 192/192/192 23/23/23
f 51/51/51 4/4/4 165/165/165
f 203/203/203 137/137/137 26/26/26
f 226/226/226 137/137/137 34/34/34
f 34/34/34 137/137/137 186/186/186
f 60/60/60 137/137/137 226/226/226
f 97/97/97 60/60/60 226/226/226
f 186/186/186 204/204/204 34/34/34
f 221/221/221 34/34/34 204/204/204
f 186/186/186 4/4/4 51/51/51
f 101/101/101 115/115/115 221/221/221
f 115/115/115 228/228/228 119/119/119
f 204/204/204 186/186/186 51/51/51
f 228/228/228 115/115/115 101/101/101
f 37/37/37 119/119/119 228/228/228
f 204/204/204 51/51/51 117/117/117
f 57/57/57 77/77/77 23/23/23
f 112/112/112 204/204/204 117/117/117
f 228/228/228 124/124/124 37/37/37
f 97/97/97 226/226/226 247/247/247
f 76/76/76 97/97/97 247/247/247
f 247/247/247 226/226/226 34/34/34
f 34/34/34 115/115/115 247/247/247
f 34/34/34 221/221/221 115/115/115
f 193/193/193 247/247/247 119/119/119
f 103/103/103 193/193/193 119/119/119
f 23/23/23 138/138/138 57/57/57
f 221/221/221 204/204/204 153/153/153
f 204/204/204 112/112/112 153/153/153
f 153/153/153 150/150/150 221/221/221
f 153/153/153 112/112/112 246/246/246
f 138/138/138 23/23/23 12/12/12
f 100/100/100 150/150/150 244/244/244
f 135/135/135 124/124/124 151/151/151
f 211/211/211 160/160/160 213/213/213
f 151/151/151 124/124/124 100/100/100
f 72/72/72 150/150/150 153/153/153
f 150/150/150 72/72/72 244/244/244
f 213/213/213 88/88/88 211/211/211
f 1/1/1 77/77/77 57/57/57
f 88/88/88 213/213/213 1/1/1
f 244/244/244 160/160/160 100/100/100
f 1/1/1 222/222/222 88/88/88
f 222/222/222 1/1/1 57/57/57
f 42/42/42 151/151/151 160/160/160
f 160/160/160 151/151/151 100/100/100
f 214/214/214 151/151/151 42/42/42
f 160/160/160 244/244/244 176/176/176
f 138/138/138 14/14/14 57/57/57
f 51/51/51 165/165/165 194/194/194
f 194/194/194 165/165/165 122/122/122
f 138/138/138 167/167/167 14/14/14
f 169/169/169 167/167/167 138/138/138
f 227/227/227 167/167/167 169/169/169
f 194/194/194 117/117/117 51/51/51
f 194/194/194 112/112/112 117/117/117
f 172/172/172 194/194/194 243/243/243
f 112/112/112 194/194/194 95/95/95
f 95/95/95 194/194/194 172/172/172
f 172/172/172 243/243/243 157/157/157
f 246/246/246 112/112/112 95/95/95
f 246/246/246 72/72/72 153/153/153
f 246/246/246 192/192/192 72/72/72
f 246/246/246 95/95/95 192/192/192
f 244/244/244 72/72/72 176/176/176
f 176/176/176 72/72/72 77/77/77
f 77/77/77 72/72/72 192/192/192
f 176/176/176 213/213/213 160/160/160
f 213/213/213 176/176/176 1/1/1
f 1/1/1 176/176/176 77/77/77
f 232/232/232 197/197/197 111/111/111
f 40/40/40 129/129/129 211/211/211
f 232/232/232 14/14/14 167/167/167
f 235/235/235 214/214/214 219/219/219
f 83/83/83 197/197/197 78/78/78
f 42/42/42 129/129/129 71/71/71
f 232/232/232 78/78/78 197/197/197
f 42/42/42 219/219/219 214/214/214
f 42/42/42 71/71/71 219/219/219
f 57/57/57 232/232/232 222/222/222
f 40/40/40 211/211/211 88/88/88
f 88/88/88 222/222/222 40/40/40
f 57/57/57 14/14/14 232/232/232
f 145/145/145 235/235/235 74/74/74
f 235/235/235 219/219/219 74/74/74
f 71/71/71 129/129/129 175/175/175
f 222/222/222 111/111/111 40/40/40
f 111/111/111 222/222/222 232/232/232
f 40/40/40 175/175/175 129/129/129
f 78/78/78 232/232/232 167/167/167
f 219/219/219 147/147/147 74/74/74
f 66/66/66 242/242/242 142/142/142
f 169/169/169 94/94/94 110/110/110
f 55/55/55 21/21/21 200/200/200
f 85/85/85 36/36/36 79/79/79
f 94/94/94 138/138/138 107/107/107
f 242/242/242 206/206/206 56/56/56
f 107/107/107 12/12/12 66/66/66
f 79/79/79 36/36/36 91/91/91
f 200/200/200 21/21/21 91/91/91
f 85/85/85 79/79/79 202/202/202
f 55/55/55 242/242/242 123/123/123
f 123/123/123 242/242/242 56/56/56
f 12/12/12 58/58/58 120/120/120
f 12/12/12 120/120/120 206/206/206
f 120/120/120 56/56/56 206/206/206
f 12/12/12 206/206/206 66/66/66
f 138/138/138 12/12/12 107/107/107
f 91/91/91 21/21/21 79/79/79
f 91/91/91 36/36/36 9/9/9
f 206/206/206 242/242/242 66/66/66
f 94/94/94 169/169/169 138/138/138
f 55/55/55 200/200/200 242/242/242
f 242/242/242 200/200/200 142/142/142
f 238/238/238 110/110/110 83/83/83
f 78/78/78 238/238/238 83/83/83
f 110/110/110 238/238/238 178/178/178
f 178/178/178 238/238/238 174/174/174
f 169/169/169 110/110/110 178/178/178
f 174/174/174 238/238/238 78/78/78
f 174/174/174 78/78/78 167/167/167
f 178/178/178 174/174/174 227/227/227

