# https://github.com/mikedh/trimesh
mtllib material.mtl
usemtl material_0
v 0.09316700 0.01101100 0.12050700
v 0.15178900 0.02026200 0.18339500
v 0.07499000 0.00892600 -0.07820500
v -0.00476700 -0.00335300 -0.13103100
v 0.18314900 0.01479000 0.08422500
v 0.17324400 0.01458300 0.18339700
v 0.00001800 -0.00339500 -0.00567100
v 0.14161100 0.01107300 0.18333900
v 0.16459600 0.02223200 -0.00240600
v 0.18970200 0.02234900 0.12336300
v -0.00038700 -0.00398400 0.08011400
v 0.08195500 -0.00063900 0.02810600
v 0.00060100 -0.00405800 0.13861900
v 0.02566900 -0.01085900 0.18393600
v 0.09547800 0.01136600 0.16610700
v -0.00279900 -0.00850800 0.02890900
v 0.18728500 0.02618700 -0.11105800
v 0.00450500 -0.00205600 0.11574000
v -0.00347400 -0.00619200 0.09433000
v 0.18891600 0.02510400 0.09063900
v 0.00244400 -0.00431700 0.18272700
v 0.00046800 -0.01344800 -0.01172700
v 0.00206500 -0.00331100 0.16007400
v 0.06217200 -0.00243100 -0.13568700
v 0.01407100 -0.00130400 0.11548800
v 0.00290200 -0.00192800 -0.05051200
v 0.02260400 -0.00880500 -0.13488000
v 0.00030700 -0.00330600 0.06330300
v 0.13434700 0.01762200 -0.00341400
v -0.00144500 -0.00192000 -0.06291400
v 0.13464600 0.01769500 0.18338300
v 0.00928000 -0.00126800 0.09853600
v 0.02437600 -0.00059900 0.18505800
v 0.01333800 -0.00122100 -0.02525900
v 0.18186400 0.02432800 0.04219700
v 0.09930600 0.00215700 0.02891700
v 0.05727000 -0.00538800 0.18255900
v 0.04087500 0.00205700 0.18433700
v 0.07628500 0.00950300 -0.12225400
v 0.18145900 0.02446100 0.02304600
v -0.00257600 -0.01314600 -0.09153400
v 0.19040100 0.01608700 0.13432300
v 0.06755600 0.00801800 -0.13815800
v -0.00003700 -0.01478200 0.17769500
v -0.00240800 -0.01168000 0.01092600
v 0.14378300 0.01980800 -0.09001800
v -0.00085900 -0.00306200 -0.02944900
v 0.05668700 0.00632900 -0.12072900
v -0.00226500 -0.01303300 -0.11380900
v 0.02308300 -0.00909100 -0.09330900
v 0.11753900 0.01476200 0.18372400
v 0.01311700 -0.00083200 -0.07748000
v 0.18918600 0.02010100 0.02402100
v 0.16200700 0.02328100 -0.13975900
v 0.18610100 0.02572300 -0.06700000
v 0.01420500 -0.01254900 0.14863500
v 0.09177600 0.01099000 0.05211100
v 0.18318100 0.01561700 0.18193300
v 0.09328800 0.01217500 -0.12596700
v 0.00686900 -0.01365300 0.18296500
v 0.18918400 0.01683000 -0.05373200
v 0.00081700 -0.00353700 0.09353100
v 0.09336500 0.00112500 0.04660300
v 0.04242000 -0.00527900 -0.13760400
v 0.01171000 -0.00213900 0.06546700
v 0.06145400 0.00129000 -0.13829700
v -0.00392700 -0.00455600 0.00960400
v -0.00323100 -0.00498300 0.03734000
v 0.05058700 0.00409800 0.13959700
v 0.04401000 0.00331600 0.05614600
v -0.00256200 -0.00135100 -0.07408300
v 0.19021300 0.01618100 0.16247900
v 0.18707500 0.02615800 -0.12833400
v 0.18831100 0.02553600 0.16723400
v -0.00063000 -0.01502200 0.15470200
v 0.03718400 0.00211400 0.07803100
v -0.00515000 -0.00502500 -0.05316400
v 0.09432500 0.00150100 0.01443400
v 0.01302100 -0.00075900 -0.13785500
v 0.16323800 0.01214600 0.18297100
v 0.12296900 0.01578000 0.16768900
v 0.08646400 0.00996400 0.08660200
v 0.18862600 0.01651500 -0.00660000
v 0.04688400 0.00329600 0.16820400
v -0.00302400 -0.00638900 0.06760000
v 0.06613000 0.00696200 0.02420800
v 0.07578300 -0.00207900 0.09980500
v 0.14095500 0.01852000 0.12827400
v 0.01016000 -0.00201300 0.00233600
v 0.17431500 0.02460000 -0.09209900
v 0.18964600 0.01640800 0.05455000
v 0.00340400 -0.00390700 0.15878900
v 0.18897900 0.01672400 -0.02987400
v -0.00298800 -0.00672600 0.15007800
v 0.06519900 -0.00232600 0.18428600
v -0.00132600 -0.01361400 0.02772300
v 0.18892600 0.02015700 0.00140400
v -0.00262600 -0.00445100 0.03017600
v 0.10893800 0.00541000 -0.13589400
v 0.00109700 -0.00334000 -0.02600400
v 0.12747100 0.00635200 0.06649300
v 0.17580000 0.02393000 0.13627800
v -0.00299900 -0.00540500 0.08296700
v -0.00307200 -0.00530600 0.05365200
v -0.00123200 -0.01365300 0.10768100
v 0.16728600 0.02299300 -0.04908800
v 0.00075800 -0.00166300 0.11522800
v 0.18854900 0.01571100 0.06251500
v 0.06109800 0.00527500 0.18436300
v 0.18863700 0.02515200 0.06092800
v -0.00372200 -0.00567000 -0.00418400
v 0.17611100 0.02369100 0.09283400
v 0.01446700 -0.00047200 -0.12187900
v -0.00446600 -0.00560000 -0.05778600
v 0.13272900 0.01714000 0.08766900
v -0.00471400 -0.00479100 -0.07527400
v -0.00375200 -0.00628700 -0.03668300
v 0.13551500 0.01900800 -0.12301400
v 0.09563200 0.00078800 0.18215600
v 0.08902800 0.00561400 0.18422700
v 0.18909300 0.02533500 0.11515800
v 0.04216800 0.00321200 0.00934900
v 0.18987100 0.01685200 0.07020200
v -0.00155700 -0.01398000 0.05861500
v 0.01600900 -0.01150100 0.06152600
v 0.11812700 0.00561900 -0.03812600
v 0.11646800 0.00735600 -0.13880700
v 0.14847500 0.01100900 -0.09081200
v 0.17152300 0.02353100 0.16586900
v -0.00106800 -0.01448400 0.08458300
v -0.00241500 -0.01215000 -0.02244600
v 0.07544200 -0.00015600 -0.13711800
v 0.10316400 0.00308400 0.18364800
v 0.18954600 0.01882400 0.05012100
v 0.04052500 0.00327500 -0.05207400
v 0.17353300 0.01353600 0.03968900
v 0.00212900 -0.00356000 0.03341600
v 0.17857000 0.01716200 -0.13915800
v 0.11189000 0.01517800 -0.12418000
v 0.03536600 0.00285600 -0.10320700
v -0.00490900 -0.00424500 -0.11001200
v 0.11956400 0.00780800 0.18382000
v 0.10487700 0.01392300 -0.10848400
v 0.19015200 0.01763700 0.09339200
v 0.00217300 -0.01341700 0.01814400
v 0.18861700 0.01800400 -0.11723500
v 0.13451600 0.01898400 -0.13952700
v -0.00109800 -0.01413700 0.04025500
v 0.00797300 -0.00069300 -0.08101200
v -0.00297600 -0.00616100 0.12112600
v 0.02160900 -0.00971700 -0.04114700
v 0.01018300 -0.00285800 0.15296800
v 0.12202100 0.00737500 -0.13019300
v 0.04127100 -0.00717200 0.03336100
v -0.00099600 -0.01477800 0.12197200
v 0.12194300 0.00543700 0.18165500
v 0.18819600 0.02268300 -0.10047800
v -0.00339500 -0.00988200 -0.06805800
v 0.18881800 0.01604500 0.01829500
v 0.18128100 0.02442900 0.00313200
v 0.16498700 0.02382800 -0.12329100
v 0.00102300 -0.01432700 0.10539200
v 0.18997200 0.02306300 0.14999500
v 0.02310600 -0.00662800 -0.13769400
v 0.18896400 0.02041500 0.04375300
v 0.07436000 -0.00232100 0.18333200
v 0.00004200 -0.00163400 -0.08830800
v 0.18919100 0.01605600 0.04232100
v 0.03460200 0.00281400 -0.12217100
v -0.00263000 -0.00701400 0.13680800
v 0.03987900 -0.00746800 0.18471500
v 0.00104500 -0.00226200 0.13333400
v -0.00129900 -0.00283300 -0.04305000
v 0.00218600 -0.00339500 0.14747000
v -0.00270500 -0.00463700 -0.13504700
v 0.17370400 0.02391200 0.18303700
v -0.00434400 -0.00492000 -0.04806700
v 0.16128300 0.02157900 0.05609200
v 0.01623300 -0.00153000 0.13432400
v 0.12644700 0.01664800 -0.04168700
v 0.07517700 0.00755200 0.18384200
v 0.01256200 -0.00179600 0.03214400
v -0.00138700 -0.00580600 0.17677000
v 0.18635300 0.02613600 -0.08437500
v 0.08812400 0.00056500 0.00341800
v 0.18950400 0.01792000 0.02992100
v 0.06801900 0.00741500 -0.01570700
v -0.00108600 -0.01466100 0.13518000
v 0.18700300 0.02608600 0.17966900
v -0.00295300 -0.00292000 -0.08349700
v 0.12139400 0.00509400 0.13755500
v 0.00832400 -0.00324300 0.18440300
v 0.12027200 0.01654800 -0.13892800
v 0.17671500 0.01445300 -0.01338400
v -0.00306800 -0.00626900 0.10951200
v 0.18944000 0.01588400 0.08521600
v 0.01460000 -0.00160400 0.08349300
v 0.01019900 -0.01204800 0.18493600
v -0.00038900 -0.00331500 -0.02017300
v 0.00769100 -0.00180200 -0.09144300
v 0.18792900 0.02575500 -0.04203100
v 0.09361300 0.01098000 0.18390800
v 0.18576400 0.02666100 -0.11123900
v -0.00249600 -0.00910400 0.08164500
v 0.07917800 0.00558600 -0.13857100
v 0.08267000 0.00029400 0.18408000
v 0.14883200 0.01244100 -0.13905300
v 0.10443000 0.01301400 0.00589900
v 0.19051100 0.01745600 0.17429600
v -0.00224300 -0.00810100 0.15006800
v -0.00098500 -0.01342700 -0.03963400
v 0.14399200 0.01896500 0.03627300
v 0.09077300 0.01147200 -0.13878800
v 0.15173600 0.02044700 0.16833900
v 0.18585000 0.02147000 0.02025800
v 0.01930500 -0.00120500 0.16724300
v 0.18879300 0.02533800 0.14309300
v 0.04382300 0.00420600 -0.13819700
v 0.01422400 -0.01123800 -0.00196200
v 0.03874700 0.00229500 0.10509200
v 0.00523500 -0.01125400 -0.13694800
v 0.18891800 0.01732700 -0.08828700
v 0.08029500 0.00947400 -0.04135800
v -0.00126200 -0.01367800 0.00130000
v -0.00195000 -0.01336100 -0.06083500
v 0.09858500 0.00492900 -0.13846300
v -0.00300400 -0.01218500 -0.12879000
v -0.00145800 -0.00146300 -0.05510700
v -0.00268500 -0.00287100 -0.11150600
v 0.18794600 0.02563400 -0.05809200
v 0.12140300 0.00583300 0.00358900
v 0.11153800 0.01456800 -0.07146000
v 0.16322300 0.01175500 0.13286500
v 0.06334800 -0.00450300 0.16307800
v -0.00367100 -0.00655500 -0.02170300
v 0.18062000 0.02642300 -0.13888300
v 0.01171600 -0.00138900 0.13270200
v 0.00157700 -0.00210700 0.10621500
v 0.18721400 0.01828800 -0.13385200
v -0.00457800 -0.00422300 -0.09236800
v 0.18799000 0.02536000 -0.00818100
v -0.00083600 -0.00277000 0.00886000
v 0.18764200 0.02552300 -0.08284500
v 0.00182900 -0.00301500 0.17329900
v -0.00261500 -0.00648400 0.16568500
v 0.18940400 0.01600200 0.10528200
v 0.00795600 -0.00195000 -0.04715800
v 0.07174700 0.00722700 0.16955800
v 0.10522600 0.00400800 -0.08167700
v -0.00457900 -0.00383700 -0.06888100
v -0.00276100 -0.01188100 -0.04279000
v 0.14385800 0.00898100 0.18166300
vn -0.15680100 0.98763000 0.00032900
vn -0.06859900 0.42574400 0.90224000
vn -0.15558100 0.98778900 0.00823900
vn -0.76460600 0.60836100 -0.21277800
vn 0.15986400 -0.98713900 0.00040800
vn 0.12549500 -0.53220300 0.83726400
vn -0.34436200 0.93853400 -0.02383200
vn 0.03803300 -0.24480500 0.96882600
vn -0.13876300 0.99030800 0.00593000
vn 0.99105700 0.13335000 -0.00483200
vn -0.45352100 0.88298500 -0.12106100
vn 0.15935400 -0.98719800 -0.00678500
vn 0.70846900 0.69981200 0.09129800
vn 0.14045300 -0.82897100 0.54136900
vn -0.16220800 0.98675000 0.00365200
vn -0.98590200 -0.16728200 0.00380800
vn 0.81746300 0.57593600 -0.00715100
vn -0.00678900 0.99995300 0.00686000
vn -0.79598300 0.60076300 -0.07412800
vn 0.74702700 0.66470100 -0.01113100
vn -0.46960900 0.44278800 0.76381000
vn -0.02529700 -0.99963500 -0.00949300
vn -0.28896000 0.95730500 -0.00835900
vn 0.15147400 -0.94622800 -0.28584800
vn -0.06499500 0.99787700 0.00422200
vn 0.00493800 0.99918900 0.03996900
vn 0.14514600 -0.94743800 -0.28512100
vn -0.19349000 0.98102000 0.01273300
vn -0.15114900 0.98849700 0.00522700
vn 0.25268100 0.96717700 0.02684500
vn -0.10317800 0.70000700 0.70664300
vn -0.10764400 0.99369900 -0.03122600
vn -0.06523400 0.41792500 0.90613600
vn -0.16276500 0.98663800 0.00725400
vn 0.20851600 0.97704900 -0.04355800
vn 0.15691600 -0.98758700 -0.00705100
vn 0.14646500 -0.91695200 0.37114300
vn -0.13242100 0.88240100 0.45148000
vn -0.15737800 0.98753700 0.00184100
vn 0.10191900 0.99479300 0.00026000
vn -0.80669900 -0.59096200 -0.00119700
vn 0.87968700 -0.47544200 -0.01026100
vn -0.13368000 0.79225300 -0.59536900
vn -0.70062600 -0.62338000 0.34716100
vn -0.95246300 -0.30465300 -0.00004400
vn -0.15533200 0.98777000 0.01350300
vn 0.99954800 0.00811600 -0.02895300
vn -0.15856400 0.98734800 -0.00131400
vn -0.21892000 -0.97560000 -0.01671600
vn 0.15785900 -0.98743400 -0.00736900
vn -0.06467400 0.44819700 0.89159200
vn -0.07818200 0.99693300 0.00345100
vn 0.88932600 0.45694600 -0.01729700
vn -0.07539100 0.52351600 -0.84867400
vn 0.01940300 0.99963100 0.01901800
vn 0.15543400 -0.98784000 -0.00341100
vn -0.15441500 0.98800100 0.00311300
vn 0.41910700 -0.51800100 0.74567000
vn -0.15802300 0.98741300 -0.00670600
vn -0.14880800 -0.81951500 0.55339900
vn 0.71379800 -0.70031000 -0.00760100
vn -0.49818600 0.86683600 -0.02014000
vn 0.15790400 -0.98743600 -0.00606000
vn 0.08421000 -0.56337000 -0.82190200
vn -0.14363500 0.98960300 0.00734200
vn 0.03065700 -0.24078600 -0.97009400
vn -0.94782300 0.31871300 0.00728600
vn -0.89701100 0.44199000 0.00413700
vn -0.16158700 0.98683900 0.00626900
vn -0.16086800 0.98696700 0.00421700
vn 0.14411900 0.98830600 0.04980200
vn 0.52377400 -0.85106000 0.03685600
vn 0.76974400 0.62106500 -0.14755600
vn 0.50932900 0.86042300 0.01601700
vn -0.69595200 -0.71804000 0.00828400
vn -0.16133800 0.98689700 0.00189300
vn 0.41756000 -0.90627000 0.06570700
vn 0.15824500 -0.98737100 -0.00755300
vn -0.18404100 0.72884800 -0.65947700
vn 0.12399000 -0.77397700 0.62095600
vn -0.16038000 0.98705400 0.00177800
vn -0.15652700 0.98766900 0.00312800
vn 0.86988600 -0.49277100 -0.02180500
vn -0.15912300 0.98718900 0.01177700
vn -0.99799100 0.02659900 0.05750300
vn -0.15647900 0.98767700 0.00306200
vn 0.15950800 -0.98717500 -0.00657300
vn -0.15447400 0.98799000 -0.00381100
vn -0.13412600 0.99096200 0.00216600
vn -0.14388600 0.98941700 0.01872600
vn 0.51604200 -0.84798800 -0.12089900
vn 0.14334000 0.98958100 0.01353000
vn 0.89609600 -0.44384100 0.00412300
vn -0.86491800 0.37416600 -0.33453900
vn 0.06752200 -0.35691100 0.93169500
vn -0.67357900 -0.73911500 -0.00096700
vn 0.86761200 0.49364100 0.05973100
vn -0.70962000 0.70395600 0.02975800
vn 0.16498600 -0.95516800 -0.24583400
vn -0.04257400 0.99900300 0.01343000
vn 0.15409800 -0.98803900 -0.00574700
vn -0.12885000 0.99164400 -0.00625300
vn -0.93628800 0.33268400 -0.11263600
vn -0.81934100 0.57319500 0.01131100
vn -0.72969700 -0.68369300 -0.01032400
vn -0.13951000 0.99016300 0.01069500
vn 0.99968800 -0.00859700 0.02343400
vn 0.35069500 -0.93603900 -0.02906200
vn -0.06525700 0.48280600 0.87329300
vn 0.69830500 0.71347600 -0.05764100
vn -0.96278500 0.26806000 -0.03449200
vn -0.12981000 0.99153500 -0.00278500
vn -0.15056300 0.98860000 0.00126600
vn -0.01241400 -0.99844400 0.05437100
vn -0.15173400 0.98842100 0.00107800
vn -0.88288900 -0.46295800 0.07859200
vn 0.11352700 -0.99168700 -0.06056500
vn -0.15999200 0.98705600 0.01113500
vn 0.15911600 -0.92884100 0.33457000
vn 0.00995300 0.02548800 0.99962600
vn 0.59419800 0.80429700 -0.00592500
vn -0.15994800 0.98711100 0.00524700
vn 0.97526100 -0.22091400 -0.00791800
vn -0.86402200 -0.50345200 -0.00127700
vn 0.15474500 -0.98792900 -0.00711400
vn 0.15527900 -0.98782800 -0.00924000
vn 0.07743700 -0.55426300 -0.82873200
vn 0.15793300 -0.98723500 -0.02061900
vn -0.14069700 0.98994700 -0.01447500
vn -0.61241400 -0.79052100 0.00503800
vn -0.79257500 -0.60975500 0.00490400
vn 0.11972800 -0.82381900 -0.55406400
vn 0.08920900 -0.42451100 0.90101700
vn 0.99922700 -0.00268700 -0.03921000
vn -0.15644300 0.98766100 0.00714300
vn 0.15389800 -0.98806700 -0.00621800
vn -0.21565800 0.97630400 0.01793500
vn 0.23574700 -0.70769700 -0.66602400
vn -0.16180900 0.98681400 0.00393600
vn -0.16016300 0.98708400 0.00362100
vn -0.98945600 0.14431500 0.01223200
vn 0.06678900 -0.29937200 0.95179600
vn -0.15674200 0.98759900 0.00901200
vn 0.99700600 -0.07731500 0.00138800
vn 0.09905000 -0.99501500 -0.01161300
vn 0.87560300 -0.48117200 -0.04235400
vn -0.13947300 0.77991700 -0.61014500
vn -0.31211800 -0.94996300 -0.01231700
vn -0.00952900 0.99958900 -0.02704700
vn -0.24081000 -0.97022100 -0.02612700
vn 0.15956900 -0.98715100 -0.00837200
vn -0.12631600 0.99199000 0.00046800
vn 0.16942500 -0.98410700 -0.05318600
vn 0.15953700 -0.98716200 -0.00772300
vn -0.63754600 -0.77029200 -0.01359600
vn 0.16505600 -0.90897000 0.38279200
vn 0.98549700 0.16949600 -0.00819700
vn -0.96230100 -0.27132100 0.01903000
vn 0.72623900 -0.68713300 -0.02062300
vn 0.28011500 0.95639300 0.08274900
vn -0.15552700 0.98777100 0.01093600
vn 0.02957500 -0.99950200 -0.01101700
vn 0.97403400 0.22639500 0.00192900
vn 0.04832500 -0.38695400 -0.92083200
vn 0.79332200 0.60628100 -0.05534700
vn 0.13857000 -0.83622000 0.53059800
vn -0.11662300 0.97043600 -0.21131300
vn 0.78391600 -0.62086600 0.00075300
vn -0.16011900 0.98709700 0.00087400
vn 0.09141300 -0.98934900 -0.11327500
vn 0.09670400 -0.50602400 0.85708100
vn 0.73332200 0.67928000 0.02858900
vn 0.74303500 0.66924900 0.00191300
vn 0.03119500 0.94111300 -0.33664900
vn -0.62629500 0.04380500 -0.77835400
vn -0.02391700 0.72891700 0.68418400
vn -0.45252500 -0.89108600 -0.03445400
vn -0.14155000 0.98992900 0.00185700
vn -0.12215600 0.99112500 0.05243900
vn -0.15284700 0.98822300 0.00725400
vn -0.11734400 0.74087300 0.66131600
vn -0.15486700 0.98793400 0.00187600
vn -0.83877200 0.51142300 0.18683900
vn 0.14132000 0.98974500 0.02084500
vn 0.15803800 -0.98740700 -0.00719300
vn 0.99983700 0.00965700 -0.01524000
vn -0.15586800 0.98776700 0.00469800
vn -0.78947400 -0.61376000 0.00539100
vn 0.49385200 0.70579900 0.50789500
vn 0.45599400 0.88922200 0.03679100
vn 0.16033300 -0.98706300 -0.00028800
vn -0.22697600 0.81208400 0.53758900
vn -0.15016200 0.81540200 -0.55908000
vn 0.16517300 -0.98622200 -0.00914300
vn -0.89716200 -0.44029000 0.03529000
vn 0.64721400 -0.76230400 -0.00238600
vn -0.13607900 0.99049800 -0.01988600
vn -0.12952500 -0.23851900 0.96246100
vn 0.07133600 0.99744900 -0.00246400
vn -0.11251900 0.99121600 -0.06950300
vn 0.60958300 0.79270600 0.00500200
vn -0.14933300 0.88477600 0.44144100
vn 0.09706400 0.99524100 0.00863900
vn -0.99879500 -0.00166700 -0.04905600
vn -0.00068400 -0.10044400 -0.99494200
vn 0.08372600 -0.44075500 0.89371400
vn 0.11147900 -0.70468100 -0.70071200
vn -0.15294400 0.98822800 0.00363200
vn 0.97081900 -0.10743800 0.21440000
vn -0.68855800 -0.67953600 -0.25321600
vn -0.32840900 -0.94450500 0.00767300
vn -0.14899500 0.98883500 0.00248600
vn -0.07991700 0.42006400 -0.90396900
vn -0.15623800 0.98771900 0.00023300
vn 0.47991900 0.87729800 -0.00513200
vn -0.16633800 0.98604300 0.00710000
vn 0.63242100 0.77462200 -0.00198000
vn -0.11653700 0.68391000 -0.72019800
vn 0.16124500 -0.98687900 -0.00838700
vn -0.15449400 0.98798500 0.00408300
vn -0.08783800 -0.70569100 -0.70305400
vn 0.94945500 -0.31362700 -0.01316000
vn -0.15456100 0.98796300 0.00626700
vn -0.57717900 -0.81649600 -0.01408200
vn -0.55374400 -0.83267100 0.00512400
vn 0.06275500 -0.49498200 -0.86663400
vn -0.80009600 -0.54431900 -0.25211600
vn 0.96887900 -0.24548600 0.03177800
vn -0.27919200 0.96010800 0.01563500
vn 0.63332900 0.77388300 0.00037700
vn 0.15364500 -0.98810100 -0.00698000
vn -0.15437100 0.98797100 0.00905400
vn 0.15893500 -0.98727600 0.00500800
vn 0.16423200 -0.98634400 0.01235400
vn -0.98827000 -0.15072100 -0.02462200
vn 0.27455200 0.78146400 -0.56029900
vn -0.04735500 0.98687100 0.15441300
vn -0.17161400 0.98505100 -0.01492300
vn 0.84282700 -0.22272500 -0.48993500
vn -0.81643900 0.57253600 -0.07502800
vn 0.73112400 0.67803800 0.07564800
vn -0.32673600 0.94503900 -0.01200600
vn 0.69212600 0.72175100 0.00615200
vn -0.02380100 0.99859300 0.04738100
vn -0.99283000 0.11358500 0.03724500
vn 0.70090700 -0.71324000 0.00415300
vn -0.10621000 0.99384500 0.03148800
vn -0.16478200 0.98622800 0.01419100
vn 0.15966300 -0.98710700 -0.01129100
vn -0.77316400 -0.63217300 0.05075100
vn -0.91471600 -0.40401000 0.00845100
vn 0.12527800 -0.83237300 0.53987100
vt 0.50248644 0.62454718
vt 0.80209648 0.84648418
vt 0.40958597 0.57452679
vt 0.00195747 0.27994626
vt 0.96237370 0.71520764
vt 0.91175043 0.71024159
vt 0.02641303 0.27893866
vt 0.75007794 0.62603459
vt 0.86755153 0.89374565
vt 0.99586530 0.89655255
vt 0.02434312 0.26480820
vt 0.44518325 0.34505674
vt 0.02939267 0.26303289
vt 0.15751223 0.09987285
vt 0.51429769 0.63306384
vt 0.01201568 0.15627474
vt 0.98351230 0.98862846
vt 0.04934555 0.31106206
vt 0.00856584 0.21183696
vt 0.99184815 0.96264664
vt 0.03881203 0.25681933
vt 0.02871293 0.03776120
vt 0.03687500 0.28095387
vt 0.34407470 0.30206559
vt 0.09823624 0.32910299
vt 0.04115281 0.31413286
vt 0.14184738 0.14914953
vt 0.02789008 0.28107382
vt 0.71295250 0.78314901
vt 0.01893581 0.31432478
vt 0.71448066 0.78490032
vt 0.07375001 0.32996665
vt 0.15090386 0.34601636
vt 0.09448996 0.33109421
vt 0.95580622 0.94402994
vt 0.53386214 0.41213444
vt 0.31902116 0.23112540
vt 0.23522828 0.40973538
vt 0.41620456 0.58836936
vt 0.95373631 0.94722069
vt 0.01315541 0.04500636
vt 0.99943780 0.74632344
vt 0.37159168 0.55274332
vt 0.02613193 0.00575774
vt 0.01401403 0.08017657
vt 0.76117877 0.83559245
vt 0.02193079 0.28692752
vt 0.31604152 0.51222321
vt 0.01474489 0.04771729
vt 0.14429549 0.14228822
vt 0.62704882 0.71453590
vt 0.09336046 0.34042655
vt 0.99322808 0.84262169
vt 0.85431946 0.91891179
vt 0.97746102 0.97749682
vt 0.09892109 0.05932874
vt 0.49537721 0.62404337
vt 0.96253725 0.73504786
vt 0.50310486 0.65247223
vt 0.06142767 0.03284313
vt 0.99321786 0.76414845
vt 0.03049662 0.27553199
vt 0.50349840 0.38737615
vt 0.24312459 0.23374037
vt 0.08616945 0.30907084
vt 0.34040509 0.39133460
vt 0.00625061 0.25108557
vt 0.00980778 0.24084159
vt 0.28486515 0.45870019
vt 0.25125089 0.43993954
vt 0.01322696 0.32797543
vt 0.99847696 0.74857856
vt 0.98243901 0.98793273
vt 0.98875606 0.97301058
vt 0.02310118 0.00000000
vt 0.21636402 0.41110285
vt 0.00000000 0.23983399
vt 0.50840484 0.39639661
vt 0.09286981 0.34217787
vt 0.86061095 0.65177650
vt 0.65480091 0.73895833
vt 0.46822821 0.59942902
vt 0.99036599 0.75659142
vt 0.26593956 0.43945973
vt 0.01086573 0.20711081
vt 0.36430357 0.52740926
vt 0.41363890 0.31051028
vt 0.74672520 0.80469256
vt 0.07824758 0.31209366
vt 0.91722418 0.95055538
vt 0.99557909 0.75402442
vt 0.04371847 0.26665547
vt 0.99217013 0.76160545
vt 0.01104972 0.19902598
vt 0.35954534 0.30458460
vt 0.01954401 0.03377876
vt 0.99189925 0.84396517
vt 0.01289986 0.25360459
vt 0.58309014 0.49017585
vt 0.03192767 0.28025814
vt 0.67781009 0.51277499
vt 0.92481384 0.93448168
vt 0.01099350 0.23071756
vt 0.01062041 0.23309263
vt 0.02002443 0.03284313
vt 0.88129980 0.91200250
vt 0.03019508 0.32049037
vt 0.98997245 0.73730298
vt 0.33858561 0.48693712
vt 0.99042221 0.96379819
vt 0.00729834 0.22436005
vt 0.92640332 0.92874793
vt 0.10026014 0.34906317
vt 0.00349584 0.22603939
vt 0.70468310 0.77158554
vt 0.00222834 0.24544778
vt 0.00714501 0.20955785
vt 0.71892201 0.81639997
vt 0.51508476 0.37929132
vt 0.48133251 0.49506993
vt 0.99275277 0.96818847
vt 0.24183665 0.43744452
vt 0.99672904 0.76467625
vt 0.01836339 0.02499820
vt 0.10814112 0.08447089
vt 0.63005402 0.49518989
vt 0.62157507 0.53686155
vt 0.78515903 0.62449920
vt 0.90295460 0.92490944
vt 0.02086261 0.01290694
vt 0.01397826 0.06890099
vt 0.41189609 0.35664420
vt 0.55357992 0.43437373
vt 0.99506800 0.81198570
vt 0.23343947 0.43895593
vt 0.91322747 0.68512343
vt 0.03720210 0.27498021
vt 0.93897098 0.77211333
vt 0.59817746 0.72451599
vt 0.20707244 0.42890387
vt 0.00123172 0.25854665
vt 0.63739836 0.54770530
vt 0.56233485 0.69440779
vt 0.99816519 0.78350886
vt 0.03742698 0.03850491
vt 0.99031999 0.79231341
vt 0.71381624 0.81582420
vt 0.02070929 0.02123168
vt 0.06707009 0.34376125
vt 0.01111105 0.21258067
vt 0.13676205 0.12727011
vt 0.07836513 0.29182161
vt 0.64995579 0.53731737
vt 0.23725219 0.18832618
vt 0.02123060 0.00585371
vt 0.64955714 0.49082360
vt 0.98816831 0.90456541
vt 0.00896960 0.12331166
vt 0.99134728 0.74531584
vt 0.95282657 0.94645299
vt 0.86954988 0.93203464
vt 0.03154947 0.01667346
vt 0.99724524 0.91368184
vt 0.14441304 0.20137706
vt 0.99209347 0.85015474
vt 0.40636611 0.30470456
vt 0.02653569 0.32118610
vt 0.99325364 0.74557973
vt 0.20316772 0.42789626
vt 0.01287942 0.19211669
vt 0.23013784 0.18122496
vt 0.03166191 0.30612000
vt 0.01968200 0.29242137
vt 0.03749342 0.27893866
vt 0.01249610 0.24914234
vt 0.91410143 0.93404985
vt 0.00411937 0.24235300
vt 0.85061918 0.87807979
vt 0.10928596 0.32368112
vt 0.67257655 0.75978217
vt 0.41054170 0.54156371
vt 0.09052392 0.31729962
vt 0.01923224 0.22109733
vt 0.97874896 0.98740494
vt 0.47671227 0.37394141
vt 0.99485334 0.79029820
vt 0.37395802 0.53827700
vt 0.02077062 0.00866061
vt 0.98207103 0.98620541
vt 0.01122860 0.29033419
vt 0.64675127 0.48259482
vt 0.06886400 0.28258523
vt 0.64101686 0.75738311
vt 0.92949029 0.70712281
vt 0.01064085 0.20998968
vt 0.99452625 0.74145335
vt 0.10093989 0.32190581
vt 0.07844691 0.07134803
vt 0.02433290 0.28085790
vt 0.06562882 0.31715567
vt 0.98680371 0.97826452
vt 0.50476590 0.62380347
vt 0.97573865 1.00000000
vt 0.01356428 0.14197635
vt 0.43099034 0.49439820
vt 0.44883753 0.36743996
vt 0.78698361 0.65885373
vt 0.56005029 0.67260034
vt 1.00000000 0.77916657
vt 0.01485733 0.16603891
vt 0.02128682 0.03826500
vt 0.76224695 0.81536838
vt 0.49025100 0.63560684
vt 0.80182561 0.85092244
vt 0.97617819 0.87546482
vt 0.12498658 0.33147806
vt 0.99121951 0.96826044
vt 0.25029515 0.46129117
vt 0.09901820 0.09078041
vt 0.22435232 0.41544515
vt 0.05307649 0.09039656
vt 0.99185837 0.77607178
vt 0.43669919 0.58767363
vt 0.01987110 0.03224336
vt 0.01635482 0.03984838
vt 0.53017719 0.47863637
vt 0.01096795 0.06806132
vt 0.01886937 0.32528849
vt 0.01259832 0.29150973
vt 0.98689059 0.97536166
vt 0.64679727 0.50032387
vt 0.59637843 0.70988173
vt 0.86053429 0.64239618
vt 0.35008510 0.25235708
vt 0.00755899 0.20312837
vt 0.94944828 0.99429024
vt 0.08620011 0.32706379
vt 0.03438089 0.30983854
vt 0.98314943 0.79912674
vt 0.00292342 0.25907444
vt 0.98711547 0.96878824
vt 0.02204834 0.29393278
vt 0.98533688 0.97269870
vt 0.03566884 0.28805508
vt 0.01295608 0.20483171
vt 0.99434226 0.74428424
vt 0.06698320 0.31360507
vt 0.39301138 0.53376676
vt 0.56411855 0.45654104
vt 0.00291831 0.26833481
vt 0.01220989 0.07535446
vt 0.76156209 0.57584627
f 244/244/244 183/183/183 21/21/21
f 23/23/23 245/245/245 183/183/183
f 244/244/244 23/23/23 183/183/183
f 170/170/170 172/172/172 13/13/13
f 13/13/13 174/174/174 210/210/210
f 210/210/210 170/170/170 13/13/13
f 172/172/172 170/170/170 150/150/150
f 107/107/107 150/150/150 195/195/195
f 107/107/107 172/172/172 150/150/150
f 238/238/238 107/107/107 195/195/195
f 11/11/11 85/85/85 28/28/28
f 116/116/116 71/71/71 250/250/250
f 104/104/104 85/85/85 28/28/28
f 238/238/238 19/19/19 195/195/195
f 94/94/94 23/23/23 174/174/174
f 242/242/242 7/7/7 111/111/111
f 199/199/199 235/235/235 7/7/7
f 235/235/235 111/111/111 7/7/7
f 242/242/242 67/67/67 98/98/98
f 77/77/77 228/228/228 177/177/177
f 177/177/177 228/228/228 173/173/173
f 77/77/77 114/114/114 228/228/228
f 23/23/23 94/94/94 245/245/245
f 47/47/47 235/235/235 117/117/117
f 173/173/173 47/47/47 117/117/117
f 30/30/30 228/228/228 114/114/114
f 174/174/174 210/210/210 94/94/94
f 117/117/117 177/177/177 173/173/173
f 250/250/250 30/30/30 114/114/114
f 190/190/190 71/71/71 116/116/116
f 240/240/240 167/167/167 190/190/190
f 19/19/19 238/238/238 62/62/62
f 242/242/242 111/111/111 67/67/67
f 229/229/229 141/141/141 240/240/240
f 235/235/235 47/47/47 199/199/199
f 229/229/229 4/4/4 141/141/141
f 52/52/52 135/135/135 3/3/3
f 200/200/200 149/149/149 52/52/52
f 247/247/247 52/52/52 26/26/26
f 112/112/112 102/102/102 121/121/121
f 161/161/161 147/147/147 118/118/118
f 57/57/57 212/212/212 208/208/208
f 216/216/216 84/84/84 69/69/69
f 25/25/25 220/220/220 197/197/197
f 69/69/69 220/220/220 179/179/179
f 167/167/167 71/71/71 149/149/149
f 149/149/149 71/71/71 30/30/30
f 218/218/218 79/79/79 113/113/113
f 43/43/43 218/218/218 48/48/48
f 135/135/135 52/52/52 247/247/247
f 182/182/182 89/89/89 137/137/137
f 35/35/35 215/215/215 40/40/40
f 76/76/76 65/65/65 197/197/197
f 140/140/140 52/52/52 3/3/3
f 15/15/15 1/1/1 69/69/69
f 197/197/197 65/65/65 11/11/11
f 140/140/140 200/200/200 52/52/52
f 39/39/39 43/43/43 48/48/48
f 135/135/135 247/247/247 34/34/34
f 200/200/200 113/113/113 229/229/229
f 76/76/76 197/197/197 220/220/220
f 86/86/86 122/122/122 70/70/70
f 3/3/3 135/135/135 223/223/223
f 32/32/32 197/197/197 62/62/62
f 32/32/32 18/18/18 25/25/25
f 25/25/25 18/18/18 172/172/172
f 179/179/179 13/13/13 152/152/152
f 48/48/48 218/218/218 169/169/169
f 48/48/48 169/169/169 140/140/140
f 137/137/137 242/242/242 98/98/98
f 137/137/137 98/98/98 68/68/68
f 137/137/137 68/68/68 104/104/104
f 15/15/15 69/69/69 248/248/248
f 113/113/113 200/200/200 169/169/169
f 187/187/187 34/34/34 122/122/122
f 215/215/215 35/35/35 165/165/165
f 143/143/143 46/46/46 118/118/118
f 157/157/157 17/17/17 243/243/243
f 65/65/65 28/28/28 11/11/11
f 122/122/122 89/89/89 182/182/182
f 182/182/182 137/137/137 28/28/28
f 182/182/182 28/28/28 65/65/65
f 115/115/115 112/112/112 178/178/178
f 197/197/197 32/32/32 25/25/25
f 237/237/237 179/179/179 25/25/25
f 25/25/25 172/172/172 237/237/237
f 172/172/172 13/13/13 237/237/237
f 13/13/13 179/179/179 237/237/237
f 174/174/174 152/152/152 13/13/13
f 216/216/216 179/179/179 152/152/152
f 169/169/169 200/200/200 140/140/140
f 187/187/187 135/135/135 34/34/34
f 215/215/215 160/160/160 40/40/40
f 149/149/149 200/200/200 167/167/167
f 52/52/52 149/149/149 30/30/30
f 52/52/52 30/30/30 26/26/26
f 89/89/89 122/122/122 34/34/34
f 70/70/70 65/65/65 76/76/76
f 84/84/84 216/216/216 38/38/38
f 70/70/70 182/182/182 65/65/65
f 57/57/57 70/70/70 82/82/82
f 220/220/220 25/25/25 179/179/179
f 212/212/212 178/178/178 40/40/40
f 169/169/169 218/218/218 113/113/113
f 216/216/216 69/69/69 179/179/179
f 112/112/112 115/115/115 88/88/88
f 240/240/240 200/200/200 229/229/229
f 84/84/84 38/38/38 248/248/248
f 26/26/26 30/30/30 228/228/228
f 201/201/201 106/106/106 9/9/9
f 247/247/247 100/100/100 34/34/34
f 214/214/214 88/88/88 81/81/81
f 34/34/34 100/100/100 89/89/89
f 15/15/15 248/248/248 202/202/202
f 70/70/70 122/122/122 182/182/182
f 201/201/201 61/61/61 230/230/230
f 39/39/39 140/140/140 3/3/3
f 143/143/143 39/39/39 3/3/3
f 248/248/248 69/69/69 84/84/84
f 140/140/140 39/39/39 48/48/48
f 208/208/208 86/86/86 57/57/57
f 55/55/55 230/230/230 243/243/243
f 57/57/57 86/86/86 70/70/70
f 55/55/55 243/243/243 184/184/184
f 70/70/70 76/76/76 82/82/82
f 82/82/82 76/76/76 220/220/220
f 222/222/222 243/243/243 230/230/230
f 187/187/187 122/122/122 86/86/86
f 139/139/139 59/59/59 143/143/143
f 1/1/1 82/82/82 220/220/220
f 222/222/222 157/157/157 243/243/243
f 223/223/223 135/135/135 187/187/187
f 38/38/38 216/216/216 33/33/33
f 69/69/69 1/1/1 220/220/220
f 203/203/203 184/184/184 243/243/243
f 248/248/248 38/38/38 109/109/109
f 109/109/109 181/181/181 248/248/248
f 143/143/143 59/59/59 39/39/39
f 203/203/203 243/243/243 17/17/17
f 208/208/208 187/187/187 86/86/86
f 247/247/247 26/26/26 173/173/173
f 173/173/173 100/100/100 247/247/247
f 100/100/100 173/173/173 47/47/47
f 100/100/100 47/47/47 199/199/199
f 100/100/100 199/199/199 7/7/7
f 7/7/7 89/89/89 100/100/100
f 89/89/89 7/7/7 242/242/242
f 89/89/89 242/242/242 137/137/137
f 74/74/74 102/102/102 129/129/129
f 1/1/1 115/115/115 82/82/82
f 59/59/59 213/213/213 43/43/43
f 59/59/59 43/43/43 39/39/39
f 115/115/115 178/178/178 212/212/212
f 88/88/88 1/1/1 15/15/15
f 9/9/9 29/29/29 212/212/212
f 115/115/115 212/212/212 57/57/57
f 51/51/51 81/81/81 202/202/202
f 90/90/90 161/161/161 46/46/46
f 215/215/215 97/97/97 160/160/160
f 90/90/90 46/46/46 106/106/106
f 208/208/208 223/223/223 187/187/187
f 97/97/97 241/241/241 160/160/160
f 139/139/139 118/118/118 147/147/147
f 161/161/161 236/236/236 54/54/54
f 53/53/53 215/215/215 165/165/165
f 180/180/180 223/223/223 208/208/208
f 134/134/134 123/123/123 91/91/91
f 88/88/88 214/214/214 102/102/102
f 161/161/161 118/118/118 46/46/46
f 110/110/110 35/35/35 112/112/112
f 110/110/110 112/112/112 20/20/20
f 20/20/20 112/112/112 121/121/121
f 74/74/74 129/129/129 189/189/189
f 102/102/102 74/74/74 217/217/217
f 88/88/88 15/15/15 81/81/81
f 213/213/213 59/59/59 193/193/193
f 59/59/59 139/139/139 193/193/193
f 1/1/1 88/88/88 115/115/115
f 232/232/232 3/3/3 223/223/223
f 51/51/51 31/31/31 81/81/81
f 143/143/143 3/3/3 232/232/232
f 2/2/2 214/214/214 31/31/31
f 53/53/53 159/159/159 97/97/97
f 53/53/53 97/97/97 215/215/215
f 160/160/160 9/9/9 40/40/40
f 55/55/55 90/90/90 106/106/106
f 230/230/230 106/106/106 201/201/201
f 165/165/165 186/186/186 53/53/53
f 186/186/186 165/165/165 134/134/134
f 112/112/112 88/88/88 102/102/102
f 46/46/46 180/180/180 106/106/106
f 180/180/180 208/208/208 29/29/29
f 110/110/110 134/134/134 165/165/165
f 110/110/110 123/123/123 134/134/134
f 102/102/102 214/214/214 129/129/129
f 15/15/15 202/202/202 81/81/81
f 29/29/29 208/208/208 212/212/212
f 110/110/110 165/165/165 35/35/35
f 106/106/106 230/230/230 55/55/55
f 106/106/106 180/180/180 29/29/29
f 82/82/82 115/115/115 57/57/57
f 106/106/106 29/29/29 9/9/9
f 223/223/223 180/180/180 232/232/232
f 203/203/203 161/161/161 90/90/90
f 9/9/9 212/212/212 40/40/40
f 90/90/90 184/184/184 203/203/203
f 214/214/214 81/81/81 31/31/31
f 241/241/241 201/201/201 9/9/9
f 90/90/90 55/55/55 184/184/184
f 241/241/241 9/9/9 160/160/160
f 139/139/139 147/147/147 193/193/193
f 118/118/118 139/139/139 143/143/143
f 46/46/46 232/232/232 180/180/180
f 232/232/232 46/46/46 143/143/143
f 35/35/35 40/40/40 178/178/178
f 241/241/241 93/93/93 201/201/201
f 161/161/161 54/54/54 147/147/147
f 35/35/35 178/178/178 112/112/112
f 190/190/190 240/240/240 116/116/116
f 79/79/79 175/175/175 4/4/4
f 229/229/229 113/113/113 79/79/79
f 17/17/17 157/157/157 146/146/146
f 43/43/43 213/213/213 205/205/205
f 17/17/17 73/73/73 203/203/203
f 17/17/17 146/146/146 73/73/73
f 146/146/146 239/239/239 73/73/73
f 73/73/73 236/236/236 203/203/203
f 73/73/73 239/239/239 236/236/236
f 66/66/66 64/64/64 218/218/218
f 229/229/229 79/79/79 4/4/4
f 190/190/190 71/71/71 167/167/167
f 173/173/173 26/26/26 228/228/228
f 218/218/218 43/43/43 66/66/66
f 200/200/200 240/240/240 167/167/167
f 71/71/71 250/250/250 30/30/30
f 147/147/147 127/127/127 193/193/193
f 203/203/203 236/236/236 161/161/161
f 193/193/193 127/127/127 213/213/213
f 141/141/141 49/49/49 41/41/41
f 141/141/141 41/41/41 240/240/240
f 60/60/60 14/14/14 198/198/198
f 41/41/41 116/116/116 240/240/240
f 250/250/250 116/116/116 158/158/158
f 114/114/114 250/250/250 158/158/158
f 114/114/114 177/177/177 77/77/77
f 211/211/211 225/225/225 151/151/151
f 22/22/22 151/151/151 219/219/219
f 22/22/22 219/219/219 145/145/145
f 96/96/96 16/16/16 45/45/45
f 148/148/148 16/16/16 96/96/96
f 16/16/16 148/148/148 124/124/124
f 124/124/124 68/68/68 16/16/16
f 124/124/124 148/148/148 125/125/125
f 164/164/164 221/221/221 79/79/79
f 85/85/85 104/104/104 124/124/124
f 85/85/85 124/124/124 204/204/204
f 204/204/204 11/11/11 85/85/85
f 103/103/103 11/11/11 204/204/204
f 62/62/62 103/103/103 204/204/204
f 62/62/62 204/204/204 19/19/19
f 19/19/19 204/204/204 195/195/195
f 150/150/150 195/195/195 155/155/155
f 44/44/44 56/56/56 60/60/60
f 164/164/164 27/27/27 221/221/221
f 154/154/154 148/148/148 145/145/145
f 151/151/151 225/225/225 50/50/50
f 126/126/126 249/249/249 128/128/128
f 175/175/175 79/79/79 221/221/221
f 158/158/158 116/116/116 41/41/41
f 225/225/225 158/158/158 41/41/41
f 158/158/158 225/225/225 177/177/177
f 114/114/114 158/158/158 177/177/177
f 177/177/177 225/225/225 251/251/251
f 251/251/251 225/225/225 211/211/211
f 21/21/21 60/60/60 198/198/198
f 205/205/205 132/132/132 66/66/66
f 205/205/205 66/66/66 43/43/43
f 131/131/131 251/251/251 211/211/211
f 251/251/251 131/131/131 235/235/235
f 211/211/211 151/151/151 22/22/22
f 131/131/131 211/211/211 22/22/22
f 131/131/131 22/22/22 224/224/224
f 145/145/145 224/224/224 22/22/22
f 117/117/117 177/177/177 251/251/251
f 251/251/251 235/235/235 117/117/117
f 145/145/145 219/219/219 154/154/154
f 111/111/111 235/235/235 131/131/131
f 126/126/126 185/185/185 151/151/151
f 16/16/16 67/67/67 45/45/45
f 198/198/198 14/14/14 33/33/33
f 14/14/14 171/171/171 33/33/33
f 96/96/96 145/145/145 148/148/148
f 124/124/124 125/125/125 130/130/130
f 98/98/98 67/67/67 16/16/16
f 68/68/68 98/98/98 16/16/16
f 104/104/104 68/68/68 124/124/124
f 14/14/14 60/60/60 56/56/56
f 27/27/27 49/49/49 221/221/221
f 153/153/153 99/99/99 127/127/127
f 21/21/21 44/44/44 60/60/60
f 64/64/64 27/27/27 164/164/164
f 24/24/24 49/49/49 27/27/27
f 24/24/24 132/132/132 249/249/249
f 154/154/154 219/219/219 185/185/185
f 49/49/49 227/227/227 221/221/221
f 227/227/227 49/49/49 141/141/141
f 75/75/75 44/44/44 245/245/245
f 183/183/183 245/245/245 44/44/44
f 249/249/249 151/151/151 50/50/50
f 37/37/37 171/171/171 234/234/234
f 14/14/14 234/234/234 171/171/171
f 154/154/154 125/125/125 148/148/148
f 185/185/185 126/126/126 231/231/231
f 175/175/175 227/227/227 4/4/4
f 50/50/50 41/41/41 49/49/49
f 185/185/185 219/219/219 151/151/151
f 141/141/141 4/4/4 227/227/227
f 64/64/64 66/66/66 24/24/24
f 50/50/50 225/225/225 41/41/41
f 12/12/12 154/154/154 185/185/185
f 218/218/218 164/164/164 79/79/79
f 218/218/218 64/64/64 164/164/164
f 204/204/204 124/124/124 130/130/130
f 195/195/195 204/204/204 130/130/130
f 130/130/130 105/105/105 195/195/195
f 162/162/162 105/105/105 130/130/130
f 105/105/105 155/155/155 195/195/195
f 162/162/162 155/155/155 105/105/105
f 155/155/155 188/188/188 150/150/150
f 170/170/170 150/150/150 188/188/188
f 210/210/210 170/170/170 188/188/188
f 56/56/56 44/44/44 75/75/75
f 188/188/188 75/75/75 210/210/210
f 75/75/75 245/245/245 210/210/210
f 210/210/210 245/245/245 94/94/94
f 50/50/50 24/24/24 249/249/249
f 24/24/24 27/27/27 64/64/64
f 49/49/49 24/24/24 50/50/50
f 111/111/111 131/131/131 224/224/224
f 224/224/224 45/45/45 111/111/111
f 67/67/67 111/111/111 45/45/45
f 145/145/145 96/96/96 224/224/224
f 45/45/45 224/224/224 96/96/96
f 24/24/24 66/66/66 132/132/132
f 226/226/226 132/132/132 205/205/205
f 99/99/99 132/132/132 226/226/226
f 249/249/249 126/126/126 151/151/151
f 221/221/221 227/227/227 175/175/175
f 127/127/127 99/99/99 226/226/226
f 222/222/222 128/128/128 146/146/146
f 153/153/153 132/132/132 99/99/99
f 132/132/132 153/153/153 249/249/249
f 128/128/128 249/249/249 153/153/153
f 138/138/138 146/146/146 128/128/128
f 239/239/239 146/146/146 138/138/138
f 213/213/213 226/226/226 205/205/205
f 61/61/61 194/194/194 126/126/126
f 222/222/222 61/61/61 128/128/128
f 138/138/138 236/236/236 239/239/239
f 231/231/231 78/78/78 185/185/185
f 207/207/207 127/127/127 147/147/147
f 128/128/128 61/61/61 126/126/126
f 127/127/127 226/226/226 213/213/213
f 138/138/138 54/54/54 236/236/236
f 54/54/54 207/207/207 147/147/147
f 138/138/138 128/128/128 207/207/207
f 157/157/157 222/222/222 146/146/146
f 230/230/230 61/61/61 222/222/222
f 207/207/207 153/153/153 127/127/127
f 153/153/153 207/207/207 128/128/128
f 207/207/207 54/54/54 138/138/138
f 119/119/119 166/166/166 234/234/234
f 163/163/163 72/72/72 42/42/42
f 234/234/234 56/56/56 162/162/162
f 162/162/162 87/87/87 234/234/234
f 233/233/233 246/246/246 42/42/42
f 87/87/87 162/162/162 125/125/125
f 206/206/206 166/166/166 119/119/119
f 5/5/5 196/196/196 246/246/246
f 5/5/5 108/108/108 196/196/196
f 108/108/108 5/5/5 136/136/136
f 125/125/125 162/162/162 130/130/130
f 233/233/233 72/72/72 80/80/80
f 56/56/56 155/155/155 162/162/162
f 136/136/136 168/168/168 108/108/108
f 234/234/234 14/14/14 56/56/56
f 119/119/119 234/234/234 191/191/191
f 101/101/101 5/5/5 191/191/191
f 185/185/185 78/78/78 12/12/12
f 36/36/36 78/78/78 231/231/231
f 154/154/154 12/12/12 63/63/63
f 63/63/63 87/87/87 125/125/125
f 233/233/233 191/191/191 5/5/5
f 12/12/12 36/36/36 63/63/63
f 83/83/83 159/159/159 194/194/194
f 37/37/37 234/234/234 166/166/166
f 166/166/166 95/95/95 37/37/37
f 188/188/188 155/155/155 56/56/56
f 56/56/56 75/75/75 188/188/188
f 78/78/78 36/36/36 12/12/12
f 125/125/125 154/154/154 63/63/63
f 93/93/93 194/194/194 61/61/61
f 83/83/83 194/194/194 93/93/93
f 231/231/231 194/194/194 159/159/159
f 136/136/136 5/5/5 101/101/101
f 136/136/136 159/159/159 168/168/168
f 186/186/186 168/168/168 159/159/159
f 168/168/168 186/186/186 134/134/134
f 108/108/108 168/168/168 134/134/134
f 134/134/134 91/91/91 108/108/108
f 123/123/123 108/108/108 91/91/91
f 231/231/231 159/159/159 136/136/136
f 110/110/110 20/20/20 123/123/123
f 123/123/123 196/196/196 108/108/108
f 144/144/144 196/196/196 123/123/123
f 233/233/233 42/42/42 72/72/72
f 144/144/144 123/123/123 20/20/20
f 196/196/196 144/144/144 246/246/246
f 10/10/10 246/246/246 144/144/144
f 10/10/10 144/144/144 121/121/121
f 246/246/246 10/10/10 42/42/42
f 58/58/58 6/6/6 72/72/72
f 101/101/101 231/231/231 136/136/136
f 133/133/133 119/119/119 156/156/156
f 142/142/142 133/133/133 156/156/156
f 201/201/201 93/93/93 61/61/61
f 191/191/191 233/233/233 156/156/156
f 83/83/83 93/93/93 241/241/241
f 97/97/97 83/83/83 241/241/241
f 156/156/156 233/233/233 252/252/252
f 159/159/159 83/83/83 97/97/97
f 63/63/63 101/101/101 87/87/87
f 101/101/101 63/63/63 36/36/36
f 159/159/159 53/53/53 186/186/186
f 119/119/119 191/191/191 156/156/156
f 234/234/234 87/87/87 191/191/191
f 36/36/36 231/231/231 101/101/101
f 87/87/87 101/101/101 191/191/191
f 231/231/231 126/126/126 194/194/194
f 80/80/80 72/72/72 6/6/6
f 80/80/80 252/252/252 233/233/233
f 233/233/233 5/5/5 246/246/246
f 92/92/92 174/174/174 23/23/23
f 23/23/23 244/244/244 92/92/92
f 92/92/92 244/244/244 21/21/21
f 104/104/104 28/28/28 137/137/137
f 11/11/11 103/103/103 62/62/62
f 197/197/197 11/11/11 62/62/62
f 216/216/216 92/92/92 192/192/192
f 32/32/32 62/62/62 238/238/238
f 32/32/32 238/238/238 18/18/18
f 18/18/18 238/238/238 107/107/107
f 107/107/107 172/172/172 18/18/18
f 174/174/174 92/92/92 152/152/152
f 152/152/152 92/92/92 216/216/216
f 192/192/192 92/92/92 21/21/21
f 209/209/209 72/72/72 163/163/163
f 8/8/8 80/80/80 2/2/2
f 21/21/21 183/183/183 44/44/44
f 95/95/95 171/171/171 37/37/37
f 33/33/33 192/192/192 198/198/198
f 2/2/2 6/6/6 176/176/176
f 129/129/129 214/214/214 176/176/176
f 181/181/181 109/109/109 120/120/120
f 171/171/171 95/95/95 109/109/109
f 171/171/171 109/109/109 38/38/38
f 202/202/202 248/248/248 181/181/181
f 252/252/252 8/8/8 142/142/142
f 142/142/142 156/156/156 252/252/252
f 192/192/192 33/33/33 216/216/216
f 38/38/38 33/33/33 171/171/171
f 192/192/192 21/21/21 198/198/198
f 133/133/133 206/206/206 119/119/119
f 120/120/120 206/206/206 133/133/133
f 181/181/181 120/120/120 202/202/202
f 206/206/206 95/95/95 166/166/166
f 120/120/120 95/95/95 206/206/206
f 95/95/95 120/120/120 109/109/109
f 58/58/58 176/176/176 6/6/6
f 31/31/31 51/51/51 142/142/142
f 42/42/42 10/10/10 163/163/163
f 202/202/202 120/120/120 51/51/51
f 189/189/189 129/129/129 176/176/176
f 189/189/189 176/176/176 58/58/58
f 74/74/74 209/209/209 163/163/163
f 189/189/189 209/209/209 74/74/74
f 133/133/133 142/142/142 51/51/51
f 209/209/209 189/189/189 58/58/58
f 209/209/209 58/58/58 72/72/72
f 2/2/2 31/31/31 8/8/8
f 80/80/80 6/6/6 2/2/2
f 120/120/120 133/133/133 51/51/51
f 121/121/121 144/144/144 20/20/20
f 217/217/217 10/10/10 121/121/121
f 102/102/102 217/217/217 121/121/121
f 163/163/163 10/10/10 217/217/217
f 163/163/163 217/217/217 74/74/74
f 31/31/31 142/142/142 8/8/8
f 80/80/80 8/8/8 252/252/252
f 176/176/176 214/214/214 2/2/2

